<svg id="visual" viewBox="0 0 960 270" width="960" height="270" xmlns="http://www.w3.org/2000/svg" xmlns:xlink="http://www.w3.org/1999/xlink" version="1.1"><rect x="0" y="0" width="960" height="270" fill="#3b82f6"></rect><path d="M0 160L22.8 166C45.7 172 91.3 184 137 189.7C182.7 195.3 228.3 194.7 274 190.8C319.7 187 365.3 180 411.2 179C457 178 503 183 548.8 182.7C594.7 182.3 640.3 176.7 686 174C731.7 171.3 777.3 171.7 823 174.2C868.7 176.7 914.3 181.3 937.2 183.7L960 186L960 271L937.2 271C914.3 271 868.7 271 823 271C777.3 271 731.7 271 686 271C640.3 271 594.7 271 548.8 271C503 271 457 271 411.2 271C365.3 271 319.7 271 274 271C228.3 271 182.7 271 137 271C91.3 271 45.7 271 22.8 271L0 271Z" fill="#10b981"></path><path d="M0 177L22.8 177.3C45.7 177.7 91.3 178.3 137 181C182.7 183.7 228.3 188.3 274 194.3C319.7 200.3 365.3 207.7 411.2 208.2C457 208.7 503 202.3 548.8 196.2C594.7 190 640.3 184 686 183.3C731.7 182.7 777.3 187.3 823 187.2C868.7 187 914.3 182 937.2 179.5L960 177L960 271L937.2 271C914.3 271 868.7 271 823 271C777.3 271 731.7 271 686 271C640.3 271 594.7 271 548.8 271C503 271 457 271 411.2 271C365.3 271 319.7 271 274 271C228.3 271 182.7 271 137 271C91.3 271 45.7 271 22.8 271L0 271Z" fill="#1f8961"></path><path d="M0 215L22.8 216.3C45.7 217.7 91.3 220.3 137 218C182.7 215.7 228.3 208.3 274 206.5C319.7 204.7 365.3 208.3 411.2 207.7C457 207 503 202 548.8 201.3C594.7 200.7 640.3 204.3 686 208.7C731.7 213 777.3 218 823 221.2C868.7 224.3 914.3 225.7 937.2 226.3L960 227L960 271L937.2 271C914.3 271 868.7 271 823 271C777.3 271 731.7 271 686 271C640.3 271 594.7 271 548.8 271C503 271 457 271 411.2 271C365.3 271 319.7 271 274 271C228.3 271 182.7 271 137 271C91.3 271 45.7 271 22.8 271L0 271Z" fill="#205c43"></path><path d="M0 236L22.8 237.2C45.7 238.3 91.3 240.7 137 240.5C182.7 240.3 228.3 237.7 274 235.5C319.7 233.3 365.3 231.7 411.2 229.5C457 227.3 503 224.7 548.8 224.5C594.7 224.3 640.3 226.7 686 227.3C731.7 228 777.3 227 823 229.3C868.7 231.7 914.3 237.3 937.2 240.2L960 243L960 271L937.2 271C914.3 271 868.7 271 823 271C777.3 271 731.7 271 686 271C640.3 271 594.7 271 548.8 271C503 271 457 271 411.2 271C365.3 271 319.7 271 274 271C228.3 271 182.7 271 137 271C91.3 271 45.7 271 22.8 271L0 271Z" fill="#1a3327"></path><path d="M0 249L22.8 249C45.7 249 91.3 249 137 248.3C182.7 247.7 228.3 246.3 274 244.2C319.7 242 365.3 239 411.2 237.7C457 236.3 503 236.7 548.8 240C594.7 243.3 640.3 249.7 686 249.7C731.7 249.7 777.3 243.3 823 242C868.7 240.7 914.3 244.3 937.2 246.2L960 248L960 271L937.2 271C914.3 271 868.7 271 823 271C777.3 271 731.7 271 686 271C640.3 271 594.7 271 548.8 271C503 271 457 271 411.2 271C365.3 271 319.7 271 274 271C228.3 271 182.7 271 137 271C91.3 271 45.7 271 22.8 271L0 271Z" fill="#0a0a0a"></path></svg>