<svg id="visual" viewBox="0 0 900 450" width="900" height="450" xmlns="http://www.w3.org/2000/svg" xmlns:xlink="http://www.w3.org/1999/xlink" version="1.1"><rect x="0" y="0" width="900" height="450" fill="#3b82f6"></rect><path d="M0 299L21.5 304.5C43 310 86 321 128.8 314.8C171.7 308.7 214.3 285.3 257.2 274.2C300 263 343 264 385.8 265.7C428.7 267.3 471.3 269.7 514.2 275C557 280.3 600 288.7 642.8 292.7C685.7 296.7 728.3 296.3 771.2 292.5C814 288.7 857 281.3 878.5 277.7L900 274L900 451L878.5 451C857 451 814 451 771.2 451C728.3 451 685.7 451 642.8 451C600 451 557 451 514.2 451C471.3 451 428.7 451 385.8 451C343 451 300 451 257.2 451C214.3 451 171.7 451 128.8 451C86 451 43 451 21.5 451L0 451Z" fill="#a7f3d0"></path><path d="M0 300L21.5 309.3C43 318.7 86 337.3 128.8 344.5C171.7 351.7 214.3 347.3 257.2 346.8C300 346.3 343 349.7 385.8 349.3C428.7 349 471.3 345 514.2 340.7C557 336.3 600 331.7 642.8 325.3C685.7 319 728.3 311 771.2 309C814 307 857 311 878.5 313L900 315L900 451L878.5 451C857 451 814 451 771.2 451C728.3 451 685.7 451 642.8 451C600 451 557 451 514.2 451C471.3 451 428.7 451 385.8 451C343 451 300 451 257.2 451C214.3 451 171.7 451 128.8 451C86 451 43 451 21.5 451L0 451Z" fill="#bdf5db"></path><path d="M0 353L21.5 351C43 349 86 345 128.8 347.5C171.7 350 214.3 359 257.2 364.2C300 369.3 343 370.7 385.8 365.5C428.7 360.3 471.3 348.7 514.2 344C557 339.3 600 341.7 642.8 349C685.7 356.3 728.3 368.7 771.2 372.8C814 377 857 373 878.5 371L900 369L900 451L878.5 451C857 451 814 451 771.2 451C728.3 451 685.7 451 642.8 451C600 451 557 451 514.2 451C471.3 451 428.7 451 385.8 451C343 451 300 451 257.2 451C214.3 451 171.7 451 128.8 451C86 451 43 451 21.5 451L0 451Z" fill="#d2f7e5"></path><path d="M0 393L21.5 390.2C43 387.3 86 381.7 128.8 381.3C171.7 381 214.3 386 257.2 390.2C300 394.3 343 397.7 385.8 394.7C428.7 391.7 471.3 382.3 514.2 375.5C557 368.7 600 364.3 642.8 365.3C685.7 366.3 728.3 372.7 771.2 376.3C814 380 857 381 878.5 381.5L900 382L900 451L878.5 451C857 451 814 451 771.2 451C728.3 451 685.7 451 642.8 451C600 451 557 451 514.2 451C471.3 451 428.7 451 385.8 451C343 451 300 451 257.2 451C214.3 451 171.7 451 128.8 451C86 451 43 451 21.5 451L0 451Z" fill="#e6f9ef"></path><path d="M0 400L21.5 399.3C43 398.7 86 397.3 128.8 401.2C171.7 405 214.3 414 257.2 414.2C300 414.3 343 405.7 385.8 404.5C428.7 403.3 471.3 409.7 514.2 412.8C557 416 600 416 642.8 415.7C685.7 415.3 728.3 414.7 771.2 416C814 417.3 857 420.7 878.5 422.3L900 424L900 451L878.5 451C857 451 814 451 771.2 451C728.3 451 685.7 451 642.8 451C600 451 557 451 514.2 451C471.3 451 428.7 451 385.8 451C343 451 300 451 257.2 451C214.3 451 171.7 451 128.8 451C86 451 43 451 21.5 451L0 451Z" fill="#fafafa"></path></svg>