<svg id="visual" viewBox="0 0 900 600" width="900" height="600" xmlns="http://www.w3.org/2000/svg" xmlns:xlink="http://www.w3.org/1999/xlink" version="1.1"><rect x="0" y="0" width="900" height="600" fill="#3b82f6"></rect><path d="M0 380L21.5 383.7C43 387.3 86 394.7 128.8 406.2C171.7 417.7 214.3 433.3 257.2 438.8C300 444.3 343 439.7 385.8 432C428.7 424.3 471.3 413.7 514.2 402.7C557 391.7 600 380.3 642.8 387.8C685.7 395.3 728.3 421.7 771.2 431.3C814 441 857 434 878.5 430.5L900 427L900 601L878.5 601C857 601 814 601 771.2 601C728.3 601 685.7 601 642.8 601C600 601 557 601 514.2 601C471.3 601 428.7 601 385.8 601C343 601 300 601 257.2 601C214.3 601 171.7 601 128.8 601C86 601 43 601 21.5 601L0 601Z" fill="#7dd3fc"></path><path d="M0 399L21.5 399C43 399 86 399 128.8 404.8C171.7 410.7 214.3 422.3 257.2 425.2C300 428 343 422 385.8 419.2C428.7 416.3 471.3 416.7 514.2 416.3C557 416 600 415 642.8 414.3C685.7 413.7 728.3 413.3 771.2 412.3C814 411.3 857 409.7 878.5 408.8L900 408L900 601L878.5 601C857 601 814 601 771.2 601C728.3 601 685.7 601 642.8 601C600 601 557 601 514.2 601C471.3 601 428.7 601 385.8 601C343 601 300 601 257.2 601C214.3 601 171.7 601 128.8 601C86 601 43 601 21.5 601L0 601Z" fill="#a2dcfc"></path><path d="M0 463L21.5 463.3C43 463.7 86 464.3 128.8 465.3C171.7 466.3 214.3 467.7 257.2 465C300 462.3 343 455.7 385.8 460.2C428.7 464.7 471.3 480.3 514.2 481.3C557 482.3 600 468.7 642.8 461C685.7 453.3 728.3 451.7 771.2 450.8C814 450 857 450 878.5 450L900 450L900 601L878.5 601C857 601 814 601 771.2 601C728.3 601 685.7 601 642.8 601C600 601 557 601 514.2 601C471.3 601 428.7 601 385.8 601C343 601 300 601 257.2 601C214.3 601 171.7 601 128.8 601C86 601 43 601 21.5 601L0 601Z" fill="#c2e6fb"></path><path d="M0 498L21.5 503C43 508 86 518 128.8 523.5C171.7 529 214.3 530 257.2 525.8C300 521.7 343 512.3 385.8 508.2C428.7 504 471.3 505 514.2 502.2C557 499.3 600 492.7 642.8 489.2C685.7 485.7 728.3 485.3 771.2 485.5C814 485.7 857 486.3 878.5 486.7L900 487L900 601L878.5 601C857 601 814 601 771.2 601C728.3 601 685.7 601 642.8 601C600 601 557 601 514.2 601C471.3 601 428.7 601 385.8 601C343 601 300 601 257.2 601C214.3 601 171.7 601 128.8 601C86 601 43 601 21.5 601L0 601Z" fill="#dff0fb"></path><path d="M0 547L21.5 543.2C43 539.3 86 531.7 128.8 529.5C171.7 527.3 214.3 530.7 257.2 537.3C300 544 343 554 385.8 556.3C428.7 558.7 471.3 553.3 514.2 552.5C557 551.7 600 555.3 642.8 551.3C685.7 547.3 728.3 535.7 771.2 536.8C814 538 857 552 878.5 559L900 566L900 601L878.5 601C857 601 814 601 771.2 601C728.3 601 685.7 601 642.8 601C600 601 557 601 514.2 601C471.3 601 428.7 601 385.8 601C343 601 300 601 257.2 601C214.3 601 171.7 601 128.8 601C86 601 43 601 21.5 601L0 601Z" fill="#fafafa"></path></svg>