<svg id="visual" viewBox="0 0 650 130" width="650" height="130" xmlns="http://www.w3.org/2000/svg" xmlns:xlink="http://www.w3.org/1999/xlink" version="1.1"><rect x="0" y="0" width="650" height="130" fill="#3b82f6"></rect><path d="M0 91L15.5 91.5C31 92 62 93 93 95.8C124 98.7 155 103.3 186 104.8C217 106.3 248 104.7 278.8 104.5C309.7 104.3 340.3 105.7 371.2 104.7C402 103.7 433 100.3 464 101.2C495 102 526 107 557 107.8C588 108.7 619 105.3 634.5 103.7L650 102L650 131L634.5 131C619 131 588 131 557 131C526 131 495 131 464 131C433 131 402 131 371.2 131C340.3 131 309.7 131 278.8 131C248 131 217 131 186 131C155 131 124 131 93 131C62 131 31 131 15.5 131L0 131Z" fill="#1d4ed8" stroke-linecap="round" stroke-linejoin="miter"></path></svg>