<svg id="visual" viewBox="0 0 540 960" width="540" height="960" xmlns="http://www.w3.org/2000/svg" xmlns:xlink="http://www.w3.org/1999/xlink" version="1.1"><rect x="0" y="0" width="540" height="960" fill="#fafafa"></rect><path d="M0 569L77 714L154 564L231 695L309 687L386 652L463 669L540 681L540 961L463 961L386 961L309 961L231 961L154 961L77 961L0 961Z" fill="#0ea5e9"></path><path d="M0 755L77 653L154 650L231 715L309 654L386 686L463 738L540 662L540 961L463 961L386 961L309 961L231 961L154 961L77 961L0 961Z" fill="#0093eb"></path><path d="M0 782L77 756L154 772L231 709L309 803L386 747L463 708L540 710L540 961L463 961L386 961L309 961L231 961L154 961L77 961L0 961Z" fill="#007ee9"></path><path d="M0 788L77 788L154 868L231 803L309 771L386 834L463 831L540 818L540 961L463 961L386 961L309 961L231 961L154 961L77 961L0 961Z" fill="#0067e2"></path><path d="M0 850L77 843L154 876L231 860L309 842L386 853L463 903L540 872L540 961L463 961L386 961L309 961L231 961L154 961L77 961L0 961Z" fill="#1d4ed8"></path></svg>