<svg id="visual" viewBox="0 0 960 540" width="960" height="540" xmlns="http://www.w3.org/2000/svg" xmlns:xlink="http://www.w3.org/1999/xlink" version="1.1"><rect x="0" y="0" width="960" height="540" fill="#fafafa"></rect><path d="M0 320L137 401L274 317L411 390L549 386L686 366L823 376L960 382L960 541L823 541L686 541L549 541L411 541L274 541L137 541L0 541Z" fill="#0ea5e9"></path><path d="M0 424L137 367L274 365L411 402L549 368L686 386L823 415L960 372L960 541L823 541L686 541L549 541L411 541L274 541L137 541L0 541Z" fill="#0093eb"></path><path d="M0 439L137 425L274 434L411 398L549 451L686 420L823 398L960 399L960 541L823 541L686 541L549 541L411 541L274 541L137 541L0 541Z" fill="#007ee9"></path><path d="M0 443L137 443L274 488L411 451L549 433L686 469L823 467L960 460L960 541L823 541L686 541L549 541L411 541L274 541L137 541L0 541Z" fill="#0067e2"></path><path d="M0 478L137 474L274 492L411 483L549 473L686 479L823 507L960 490L960 541L823 541L686 541L549 541L411 541L274 541L137 541L0 541Z" fill="#1d4ed8"></path></svg>