<svg id="visual" viewBox="0 0 540 580" width="540" height="580" xmlns="http://www.w3.org/2000/svg" xmlns:xlink="http://www.w3.org/1999/xlink" version="1.1"><rect x="0" y="0" width="540" height="580" fill="#0a0a0a"></rect><path d="M0 404L77 364L154 339L231 396L309 409L386 386L463 374L540 391L540 581L463 581L386 581L309 581L231 581L154 581L77 581L0 581Z" fill="#082f49"></path><path d="M0 444L77 462L154 430L231 430L309 418L386 399L463 451L540 387L540 581L463 581L386 581L309 581L231 581L154 581L77 581L0 581Z" fill="#003c6e"></path><path d="M0 429L77 451L154 493L231 445L309 478L386 447L463 483L540 477L540 581L463 581L386 581L309 581L231 581L154 581L77 581L0 581Z" fill="#004593"></path><path d="M0 512L77 475L154 469L231 486L309 466L386 516L463 522L540 491L540 581L463 581L386 581L309 581L231 581L154 581L77 581L0 581Z" fill="#004bb6"></path><path d="M0 509L77 523L154 536L231 538L309 514L386 532L463 515L540 538L540 581L463 581L386 581L309 581L231 581L154 581L77 581L0 581Z" fill="#1d4ed8"></path></svg>