<svg id="visual" viewBox="0 0 960 270" width="960" height="270" xmlns="http://www.w3.org/2000/svg" xmlns:xlink="http://www.w3.org/1999/xlink" version="1.1"><rect x="0" y="0" width="960" height="270" fill="#0a0a0a"></rect><path d="M0 187L137 169L274 157L411 184L549 190L686 179L823 173L960 181L960 271L823 271L686 271L549 271L411 271L274 271L137 271L0 271Z" fill="#082f49"></path><path d="M0 206L137 214L274 200L411 199L549 194L686 185L823 209L960 179L960 271L823 271L686 271L549 271L411 271L274 271L137 271L0 271Z" fill="#003c6e"></path><path d="M0 199L137 210L274 229L411 207L549 222L686 208L823 224L960 222L960 271L823 271L686 271L549 271L411 271L274 271L137 271L0 271Z" fill="#004593"></path><path d="M0 238L137 220L274 218L411 226L549 216L686 239L823 243L960 228L960 271L823 271L686 271L549 271L411 271L274 271L137 271L0 271Z" fill="#004bb6"></path><path d="M0 237L137 243L274 249L411 250L549 239L686 247L823 239L960 250L960 271L823 271L686 271L549 271L411 271L274 271L137 271L0 271Z" fill="#1d4ed8"></path></svg>