<svg id="visual" viewBox="0 0 960 540" width="960" height="540" xmlns="http://www.w3.org/2000/svg" xmlns:xlink="http://www.w3.org/1999/xlink" version="1.1"><rect width="960" height="540" fill="#6d28d9"></rect><g><g transform="translate(702 433)"><path d="M69.3 -24C78.1 4.6 65.4 38.6 41.2 56C17.1 73.3 -18.6 74 -42.8 56.9C-67.1 39.8 -79.8 4.9 -70.8 -24C-61.7 -52.9 -30.9 -75.7 -0.3 -75.6C30.2 -75.5 60.5 -52.5 69.3 -24Z" stroke="#6366f1" fill="none" stroke-width="20"></path></g><g transform="translate(390 314)"><path d="M55.2 -15.9C62.4 4.4 53 32.2 34.5 45C16.1 57.8 -11.4 55.7 -29.6 42.1C-47.8 28.6 -56.7 3.6 -50.2 -15.6C-43.7 -34.8 -21.9 -48.3 1 -48.6C24 -49 47.9 -36.2 55.2 -15.9Z" stroke="#6366f1" fill="none" stroke-width="20"></path></g><g transform="translate(802 195)"><path d="M50.2 -15.9C57.4 5.6 50 32.2 32.5 45C15 57.8 -12.8 56.8 -31.6 43.2C-50.4 29.6 -60.4 3.4 -53.6 -17.6C-46.9 -38.6 -23.4 -54.4 -0.9 -54.1C21.6 -53.8 43.1 -37.4 50.2 -15.9Z" stroke="#6366f1" fill="none" stroke-width="20"></path></g><g transform="translate(256 144)"><path d="M36.7 -10.7C42.3 5.4 38 25.9 24.8 35.9C11.6 45.9 -10.5 45.3 -23.9 35.1C-37.4 24.8 -42.2 4.7 -36.8 -11.1C-31.4 -26.9 -15.7 -38.6 -0.1 -38.5C15.5 -38.5 31.1 -26.8 36.7 -10.7Z" stroke="#6366f1" fill="none" stroke-width="20"></path></g><g transform="translate(543 123)"><path d="M40 -14.1C45.5 4 39.3 24.8 24.5 36.2C9.7 47.5 -13.7 49.3 -29.4 38.4C-45.1 27.5 -53.1 3.8 -46.9 -15.2C-40.7 -34.3 -20.4 -48.8 -1.6 -48.2C17.2 -47.7 34.4 -32.3 40 -14.1Z" stroke="#6366f1" fill="none" stroke-width="20"></path></g></g></svg>