<svg id="visual" viewBox="0 0 540 480" width="540" height="480" xmlns="http://www.w3.org/2000/svg" xmlns:xlink="http://www.w3.org/1999/xlink" version="1.1"><rect x="0" y="0" width="540" height="480" fill="#3b82f6"></rect><path d="M0 285L12.8 295.7C25.7 306.3 51.3 327.7 77 333.3C102.7 339 128.3 329 154 322.8C179.7 316.7 205.3 314.3 231.2 316.5C257 318.7 283 325.3 308.8 324.2C334.7 323 360.3 314 386 316.8C411.7 319.7 437.3 334.3 463 333.3C488.7 332.3 514.3 315.7 527.2 307.3L540 299L540 481L527.2 481C514.3 481 488.7 481 463 481C437.3 481 411.7 481 386 481C360.3 481 334.7 481 308.8 481C283 481 257 481 231.2 481C205.3 481 179.7 481 154 481C128.3 481 102.7 481 77 481C51.3 481 25.7 481 12.8 481L0 481Z" fill="#2563eb"></path><path d="M0 343L12.8 349.2C25.7 355.3 51.3 367.7 77 371C102.7 374.3 128.3 368.7 154 366.5C179.7 364.3 205.3 365.7 231.2 362C257 358.3 283 349.7 308.8 345.2C334.7 340.7 360.3 340.3 386 346.3C411.7 352.3 437.3 364.7 463 366.5C488.7 368.3 514.3 359.7 527.2 355.3L540 351L540 481L527.2 481C514.3 481 488.7 481 463 481C437.3 481 411.7 481 386 481C360.3 481 334.7 481 308.8 481C283 481 257 481 231.2 481C205.3 481 179.7 481 154 481C128.3 481 102.7 481 77 481C51.3 481 25.7 481 12.8 481L0 481Z" fill="#3b58e9"></path><path d="M0 368L12.8 374.7C25.7 381.3 51.3 394.7 77 396.2C102.7 397.7 128.3 387.3 154 387C179.7 386.7 205.3 396.3 231.2 393.5C257 390.7 283 375.3 308.8 370C334.7 364.7 360.3 369.3 386 376C411.7 382.7 437.3 391.3 463 394.5C488.7 397.7 514.3 395.3 527.2 394.2L540 393L540 481L527.2 481C514.3 481 488.7 481 463 481C437.3 481 411.7 481 386 481C360.3 481 334.7 481 308.8 481C283 481 257 481 231.2 481C205.3 481 179.7 481 154 481C128.3 481 102.7 481 77 481C51.3 481 25.7 481 12.8 481L0 481Z" fill="#4d4ce5"></path><path d="M0 405L12.8 403.8C25.7 402.7 51.3 400.3 77 403.3C102.7 406.3 128.3 414.7 154 413C179.7 411.3 205.3 399.7 231.2 400C257 400.3 283 412.7 308.8 417.3C334.7 422 360.3 419 386 419.8C411.7 420.7 437.3 425.3 463 426.3C488.7 427.3 514.3 424.7 527.2 423.3L540 422L540 481L527.2 481C514.3 481 488.7 481 463 481C437.3 481 411.7 481 386 481C360.3 481 334.7 481 308.8 481C283 481 257 481 231.2 481C205.3 481 179.7 481 154 481C128.3 481 102.7 481 77 481C51.3 481 25.7 481 12.8 481L0 481Z" fill="#5e3de0"></path><path d="M0 453L12.8 448.5C25.7 444 51.3 435 77 433.8C102.7 432.7 128.3 439.3 154 444.3C179.7 449.3 205.3 452.7 231.2 454.8C257 457 283 458 308.8 456.5C334.7 455 360.3 451 386 444.5C411.7 438 437.3 429 463 430.2C488.7 431.3 514.3 442.7 527.2 448.3L540 454L540 481L527.2 481C514.3 481 488.7 481 463 481C437.3 481 411.7 481 386 481C360.3 481 334.7 481 308.8 481C283 481 257 481 231.2 481C205.3 481 179.7 481 154 481C128.3 481 102.7 481 77 481C51.3 481 25.7 481 12.8 481L0 481Z" fill="#6d28d9"></path></svg>