<svg id="visual" viewBox="0 0 540 540" width="540" height="540" xmlns="http://www.w3.org/2000/svg" xmlns:xlink="http://www.w3.org/1999/xlink" version="1.1"><rect x="0" y="0" width="540" height="540" fill="#6d28d9"></rect><path d="M0 320L12.8 332C25.7 344 51.3 368 77 374.5C102.7 381 128.3 370 154 363.2C179.7 356.3 205.3 353.7 231.2 356C257 358.3 283 365.7 308.8 364.3C334.7 363 360.3 353 386 356.2C411.7 359.3 437.3 375.7 463 374.7C488.7 373.7 514.3 355.3 527.2 346.2L540 337L540 541L527.2 541C514.3 541 488.7 541 463 541C437.3 541 411.7 541 386 541C360.3 541 334.7 541 308.8 541C283 541 257 541 231.2 541C205.3 541 179.7 541 154 541C128.3 541 102.7 541 77 541C51.3 541 25.7 541 12.8 541L0 541Z" fill="#4338ca"></path><path d="M0 386L12.8 392.8C25.7 399.7 51.3 413.3 77 417.2C102.7 421 128.3 415 154 412.7C179.7 410.3 205.3 411.7 231.2 407.5C257 403.3 283 393.7 308.8 388.7C334.7 383.7 360.3 383.3 386 390C411.7 396.7 437.3 410.3 463 412.3C488.7 414.3 514.3 404.7 527.2 399.8L540 395L540 541L527.2 541C514.3 541 488.7 541 463 541C437.3 541 411.7 541 386 541C360.3 541 334.7 541 308.8 541C283 541 257 541 231.2 541C205.3 541 179.7 541 154 541C128.3 541 102.7 541 77 541C51.3 541 25.7 541 12.8 541L0 541Z" fill="#3c3ece"></path><path d="M0 414L12.8 421.7C25.7 429.3 51.3 444.7 77 446.3C102.7 448 128.3 436 154 435.5C179.7 435 205.3 446 231.2 443C257 440 283 423 308.8 417C334.7 411 360.3 416 386 423.5C411.7 431 437.3 441 463 444.7C488.7 448.3 514.3 445.7 527.2 444.3L540 443L540 541L527.2 541C514.3 541 488.7 541 463 541C437.3 541 411.7 541 386 541C360.3 541 334.7 541 308.8 541C283 541 257 541 231.2 541C205.3 541 179.7 541 154 541C128.3 541 102.7 541 77 541C51.3 541 25.7 541 12.8 541L0 541Z" fill="#3444d1"></path><path d="M0 456L12.8 454.7C25.7 453.3 51.3 450.7 77 454C102.7 457.3 128.3 466.7 154 464.8C179.7 463 205.3 450 231.2 450.5C257 451 283 465 308.8 470.2C334.7 475.3 360.3 471.7 386 472.5C411.7 473.3 437.3 478.7 463 479.8C488.7 481 514.3 478 527.2 476.5L540 475L540 541L527.2 541C514.3 541 488.7 541 463 541C437.3 541 411.7 541 386 541C360.3 541 334.7 541 308.8 541C283 541 257 541 231.2 541C205.3 541 179.7 541 154 541C128.3 541 102.7 541 77 541C51.3 541 25.7 541 12.8 541L0 541Z" fill="#2a49d5"></path><path d="M0 510L12.8 505C25.7 500 51.3 490 77 488.7C102.7 487.3 128.3 494.7 154 500.2C179.7 505.7 205.3 509.3 231.2 511.7C257 514 283 515 308.8 513.3C334.7 511.7 360.3 507.3 386 500.2C411.7 493 437.3 483 463 484.3C488.7 485.7 514.3 498.3 527.2 504.7L540 511L540 541L527.2 541C514.3 541 488.7 541 463 541C437.3 541 411.7 541 386 541C360.3 541 334.7 541 308.8 541C283 541 257 541 231.2 541C205.3 541 179.7 541 154 541C128.3 541 102.7 541 77 541C51.3 541 25.7 541 12.8 541L0 541Z" fill="#1d4ed8"></path></svg>