<svg id="visual" viewBox="0 0 960 270" width="960" height="270" xmlns="http://www.w3.org/2000/svg" xmlns:xlink="http://www.w3.org/1999/xlink" version="1.1"><rect x="0" y="0" width="960" height="270" fill="#3b82f6"></rect><path d="M0 160L22.8 166C45.7 172 91.3 184 137 187.2C182.7 190.3 228.3 184.7 274 181.2C319.7 177.7 365.3 176.3 411.2 177.5C457 178.7 503 182.3 548.8 181.7C594.7 181 640.3 176 686 177.7C731.7 179.3 777.3 187.7 823 187.2C868.7 186.7 914.3 177.3 937.2 172.7L960 168L960 271L937.2 271C914.3 271 868.7 271 823 271C777.3 271 731.7 271 686 271C640.3 271 594.7 271 548.8 271C503 271 457 271 411.2 271C365.3 271 319.7 271 274 271C228.3 271 182.7 271 137 271C91.3 271 45.7 271 22.8 271L0 271Z" fill="#2563eb"></path><path d="M0 193L22.8 196.3C45.7 199.7 91.3 206.3 137 208.2C182.7 210 228.3 207 274 205.8C319.7 204.7 365.3 205.3 411.2 203.3C457 201.3 503 196.7 548.8 194.2C594.7 191.7 640.3 191.3 686 194.5C731.7 197.7 777.3 204.3 823 205.3C868.7 206.3 914.3 201.7 937.2 199.3L960 197L960 271L937.2 271C914.3 271 868.7 271 823 271C777.3 271 731.7 271 686 271C640.3 271 594.7 271 548.8 271C503 271 457 271 411.2 271C365.3 271 319.7 271 274 271C228.3 271 182.7 271 137 271C91.3 271 45.7 271 22.8 271L0 271Z" fill="#3b58e9"></path><path d="M0 207L22.8 210.7C45.7 214.3 91.3 221.7 137 222.5C182.7 223.3 228.3 217.7 274 217.5C319.7 217.3 365.3 222.7 411.2 221C457 219.3 503 210.7 548.8 207.7C594.7 204.7 640.3 207.3 686 211.2C731.7 215 777.3 220 823 221.8C868.7 223.7 914.3 222.3 937.2 221.7L960 221L960 271L937.2 271C914.3 271 868.7 271 823 271C777.3 271 731.7 271 686 271C640.3 271 594.7 271 548.8 271C503 271 457 271 411.2 271C365.3 271 319.7 271 274 271C228.3 271 182.7 271 137 271C91.3 271 45.7 271 22.8 271L0 271Z" fill="#4d4ce5"></path><path d="M0 227L22.8 226.5C45.7 226 91.3 225 137 226.7C182.7 228.3 228.3 232.7 274 231.7C319.7 230.7 365.3 224.3 411.2 224.7C457 225 503 232 548.8 234.7C594.7 237.3 640.3 235.7 686 236.2C731.7 236.7 777.3 239.3 823 239.8C868.7 240.3 914.3 238.7 937.2 237.8L960 237L960 271L937.2 271C914.3 271 868.7 271 823 271C777.3 271 731.7 271 686 271C640.3 271 594.7 271 548.8 271C503 271 457 271 411.2 271C365.3 271 319.7 271 274 271C228.3 271 182.7 271 137 271C91.3 271 45.7 271 22.8 271L0 271Z" fill="#5e3de0"></path><path d="M0 254L22.8 251.5C45.7 249 91.3 244 137 243.5C182.7 243 228.3 247 274 249.8C319.7 252.7 365.3 254.3 411.2 255.5C457 256.7 503 257.3 548.8 256.5C594.7 255.7 640.3 253.3 686 249.7C731.7 246 777.3 241 823 241.7C868.7 242.3 914.3 248.7 937.2 251.8L960 255L960 271L937.2 271C914.3 271 868.7 271 823 271C777.3 271 731.7 271 686 271C640.3 271 594.7 271 548.8 271C503 271 457 271 411.2 271C365.3 271 319.7 271 274 271C228.3 271 182.7 271 137 271C91.3 271 45.7 271 22.8 271L0 271Z" fill="#6d28d9"></path></svg>