<svg id="visual" viewBox="0 0 540 960" width="540" height="960" xmlns="http://www.w3.org/2000/svg" xmlns:xlink="http://www.w3.org/1999/xlink" version="1.1"><rect width="540" height="960" fill="#6d28d9"></rect><g><g transform="translate(180 446)"><path d="M69.2 -24.1C77.2 2 62.4 33.8 38.8 50.2C15.2 66.5 -17.2 67.4 -40.1 51.6C-63.1 35.8 -76.5 3.3 -68.2 -23.2C-60 -49.8 -30 -70.3 0.3 -70.4C30.6 -70.5 61.3 -50.2 69.2 -24.1Z" stroke="#6366f1" fill="none" stroke-width="20"></path></g><g transform="translate(293 157)"><path d="M49 -14.8C56 5.7 49 31.8 31.7 44.6C14.3 57.5 -13.4 57 -31.9 43.7C-50.3 30.3 -59.5 4 -52.7 -16.3C-45.8 -36.6 -22.9 -50.8 -1 -50.5C21 -50.2 42 -35.3 49 -14.8Z" stroke="#6366f1" fill="none" stroke-width="20"></path></g><g transform="translate(391 620)"><path d="M44.3 -16.7C50.3 4 43.1 26.7 26 40.1C8.9 53.6 -18.1 57.8 -35.3 45.9C-52.5 34 -60 6 -52.5 -16.8C-45 -39.5 -22.5 -57.1 -1.7 -56.6C19.2 -56 38.3 -37.4 44.3 -16.7Z" stroke="#6366f1" fill="none" stroke-width="20"></path></g><g transform="translate(225 850)"><path d="M57.2 -20.1C64.4 3.6 53.9 31.7 32.8 47.5C11.8 63.3 -19.8 67 -38.9 53.2C-58.1 39.3 -64.9 8 -56.3 -17.5C-47.8 -43.1 -23.9 -62.9 0.6 -63C25 -63.2 50 -43.8 57.2 -20.1Z" stroke="#6366f1" fill="none" stroke-width="20"></path></g><g transform="translate(429 392)"><path d="M46.9 -16.1C52.9 3.2 44.4 26.3 28.6 37.3C12.8 48.3 -10.3 47.1 -26.9 35.4C-43.5 23.7 -53.5 1.5 -48 -17.2C-42.4 -35.9 -21.2 -51.1 -0.4 -50.9C20.5 -50.8 40.9 -35.4 46.9 -16.1Z" stroke="#6366f1" fill="none" stroke-width="20"></path></g></g></svg>