<svg id="visual" viewBox="0 0 960 540" width="960" height="540" xmlns="http://www.w3.org/2000/svg" xmlns:xlink="http://www.w3.org/1999/xlink" version="1.1"><rect x="0" y="0" width="960" height="540" fill="#3b82f6"></rect><path d="M0 339L22.8 349.2C45.7 359.3 91.3 379.7 137 379.3C182.7 379 228.3 358 274 352.3C319.7 346.7 365.3 356.3 411.2 352.5C457 348.7 503 331.3 548.8 336.3C594.7 341.3 640.3 368.7 686 376.7C731.7 384.7 777.3 373.3 823 364.3C868.7 355.3 914.3 348.7 937.2 345.3L960 342L960 541L937.2 541C914.3 541 868.7 541 823 541C777.3 541 731.7 541 686 541C640.3 541 594.7 541 548.8 541C503 541 457 541 411.2 541C365.3 541 319.7 541 274 541C228.3 541 182.7 541 137 541C91.3 541 45.7 541 22.8 541L0 541Z" fill="#7dd3fc"></path><path d="M0 390L22.8 390.5C45.7 391 91.3 392 137 386.2C182.7 380.3 228.3 367.7 274 363.3C319.7 359 365.3 363 411.2 366.3C457 369.7 503 372.3 548.8 373.2C594.7 374 640.3 373 686 372.5C731.7 372 777.3 372 823 381.2C868.7 390.3 914.3 408.7 937.2 417.8L960 427L960 541L937.2 541C914.3 541 868.7 541 823 541C777.3 541 731.7 541 686 541C640.3 541 594.7 541 548.8 541C503 541 457 541 411.2 541C365.3 541 319.7 541 274 541C228.3 541 182.7 541 137 541C91.3 541 45.7 541 22.8 541L0 541Z" fill="#a2dcfc"></path><path d="M0 450L22.8 445C45.7 440 91.3 430 137 429.8C182.7 429.7 228.3 439.3 274 444.5C319.7 449.7 365.3 450.3 411.2 444.5C457 438.7 503 426.3 548.8 425.7C594.7 425 640.3 436 686 443.2C731.7 450.3 777.3 453.7 823 450.3C868.7 447 914.3 437 937.2 432L960 427L960 541L937.2 541C914.3 541 868.7 541 823 541C777.3 541 731.7 541 686 541C640.3 541 594.7 541 548.8 541C503 541 457 541 411.2 541C365.3 541 319.7 541 274 541C228.3 541 182.7 541 137 541C91.3 541 45.7 541 22.8 541L0 541Z" fill="#c2e6fb"></path><path d="M0 487L22.8 486.7C45.7 486.3 91.3 485.7 137 483.2C182.7 480.7 228.3 476.3 274 474.8C319.7 473.3 365.3 474.7 411.2 475.5C457 476.3 503 476.7 548.8 477.3C594.7 478 640.3 479 686 475.3C731.7 471.7 777.3 463.3 823 460.5C868.7 457.7 914.3 460.3 937.2 461.7L960 463L960 541L937.2 541C914.3 541 868.7 541 823 541C777.3 541 731.7 541 686 541C640.3 541 594.7 541 548.8 541C503 541 457 541 411.2 541C365.3 541 319.7 541 274 541C228.3 541 182.7 541 137 541C91.3 541 45.7 541 22.8 541L0 541Z" fill="#dff0fb"></path><path d="M0 486L22.8 488.5C45.7 491 91.3 496 137 497.7C182.7 499.3 228.3 497.7 274 497.8C319.7 498 365.3 500 411.2 497.7C457 495.3 503 488.7 548.8 489.8C594.7 491 640.3 500 686 503.2C731.7 506.3 777.3 503.7 823 503.2C868.7 502.7 914.3 504.3 937.2 505.2L960 506L960 541L937.2 541C914.3 541 868.7 541 823 541C777.3 541 731.7 541 686 541C640.3 541 594.7 541 548.8 541C503 541 457 541 411.2 541C365.3 541 319.7 541 274 541C228.3 541 182.7 541 137 541C91.3 541 45.7 541 22.8 541L0 541Z" fill="#fafafa"></path></svg>