<svg id="visual" viewBox="0 0 540 960" width="540" height="960" xmlns="http://www.w3.org/2000/svg" xmlns:xlink="http://www.w3.org/1999/xlink" version="1.1"><rect x="0" y="0" width="540" height="960" fill="#3b82f6"></rect><g transform="translate(253.86688750560046 477.42878346558064)"><path d="M112.2 -154C147.3 -129 178.7 -98.7 196.5 -60C214.3 -21.4 218.4 25.4 202.6 63.3C186.8 101.1 151 129.8 113.9 149.1C76.8 168.4 38.4 178.2 -7.2 188.2C-52.9 198.1 -105.8 208.3 -127.2 183.9C-148.6 159.5 -138.5 100.6 -147.7 52.6C-156.9 4.6 -185.5 -32.4 -179.3 -60.4C-173.2 -88.4 -132.5 -107.3 -96.8 -132.1C-61.1 -156.8 -30.6 -187.4 4 -192.9C38.6 -198.5 77.2 -178.9 112.2 -154" fill="#1d4ed8"></path></g></svg>