<svg id="visual" viewBox="0 0 960 540" width="960" height="540" xmlns="http://www.w3.org/2000/svg" xmlns:xlink="http://www.w3.org/1999/xlink" version="1.1"><rect x="0" y="0" width="960" height="540" fill="#3b82f6"></rect><path d="M0 355L22.8 359.8C45.7 364.7 91.3 374.3 137 376.5C182.7 378.7 228.3 373.3 274 369.2C319.7 365 365.3 362 411.2 356.8C457 351.7 503 344.3 548.8 337.7C594.7 331 640.3 325 686 333.5C731.7 342 777.3 365 823 375.8C868.7 386.7 914.3 385.3 937.2 384.7L960 384L960 541L937.2 541C914.3 541 868.7 541 823 541C777.3 541 731.7 541 686 541C640.3 541 594.7 541 548.8 541C503 541 457 541 411.2 541C365.3 541 319.7 541 274 541C228.3 541 182.7 541 137 541C91.3 541 45.7 541 22.8 541L0 541Z" fill="#1d4ed8"></path><path d="M0 419L22.8 410C45.7 401 91.3 383 137 377.2C182.7 371.3 228.3 377.7 274 383.2C319.7 388.7 365.3 393.3 411.2 392.8C457 392.3 503 386.7 548.8 385.7C594.7 384.7 640.3 388.3 686 385.2C731.7 382 777.3 372 823 378.2C868.7 384.3 914.3 406.7 937.2 417.8L960 429L960 541L937.2 541C914.3 541 868.7 541 823 541C777.3 541 731.7 541 686 541C640.3 541 594.7 541 548.8 541C503 541 457 541 411.2 541C365.3 541 319.7 541 274 541C228.3 541 182.7 541 137 541C91.3 541 45.7 541 22.8 541L0 541Z" fill="#273d9f"></path><path d="M0 399L22.8 398.7C45.7 398.3 91.3 397.7 137 397.5C182.7 397.3 228.3 397.7 274 401C319.7 404.3 365.3 410.7 411.2 418.5C457 426.3 503 435.7 548.8 440.8C594.7 446 640.3 447 686 438.5C731.7 430 777.3 412 823 411C868.7 410 914.3 426 937.2 434L960 442L960 541L937.2 541C914.3 541 868.7 541 823 541C777.3 541 731.7 541 686 541C640.3 541 594.7 541 548.8 541C503 541 457 541 411.2 541C365.3 541 319.7 541 274 541C228.3 541 182.7 541 137 541C91.3 541 45.7 541 22.8 541L0 541Z" fill="#252c6a"></path><path d="M0 464L22.8 459C45.7 454 91.3 444 137 440C182.7 436 228.3 438 274 440.7C319.7 443.3 365.3 446.7 411.2 446.3C457 446 503 442 548.8 447.5C594.7 453 640.3 468 686 468.3C731.7 468.7 777.3 454.3 823 447.8C868.7 441.3 914.3 442.7 937.2 443.3L960 444L960 541L937.2 541C914.3 541 868.7 541 823 541C777.3 541 731.7 541 686 541C640.3 541 594.7 541 548.8 541C503 541 457 541 411.2 541C365.3 541 319.7 541 274 541C228.3 541 182.7 541 137 541C91.3 541 45.7 541 22.8 541L0 541Z" fill="#1c1c39"></path><path d="M0 504L22.8 502.5C45.7 501 91.3 498 137 497.3C182.7 496.7 228.3 498.3 274 498.7C319.7 499 365.3 498 411.2 496C457 494 503 491 548.8 494.2C594.7 497.3 640.3 506.7 686 507.5C731.7 508.3 777.3 500.7 823 494.8C868.7 489 914.3 485 937.2 483L960 481L960 541L937.2 541C914.3 541 868.7 541 823 541C777.3 541 731.7 541 686 541C640.3 541 594.7 541 548.8 541C503 541 457 541 411.2 541C365.3 541 319.7 541 274 541C228.3 541 182.7 541 137 541C91.3 541 45.7 541 22.8 541L0 541Z" fill="#0a0a0a"></path></svg>