<svg id="visual" viewBox="0 0 540 960" width="540" height="960" xmlns="http://www.w3.org/2000/svg" xmlns:xlink="http://www.w3.org/1999/xlink" version="1.1"><rect width="540" height="960" fill="#0a0a0a"></rect><g><g transform="translate(304 740)"><path d="M0 -104.1L90.1 -52L90.1 52L0 104.1L-90.1 52L-90.1 -52Z" fill="#431407"></path></g><g transform="translate(428 488)"><path d="M0 -55L47.6 -27.5L47.6 27.5L0 55L-47.6 27.5L-47.6 -27.5Z" fill="#431407"></path></g><g transform="translate(136 336)"><path d="M0 -59L51.1 -29.5L51.1 29.5L0 59L-51.1 29.5L-51.1 -29.5Z" fill="#431407"></path></g><g transform="translate(135 575)"><path d="M0 -68L58.9 -34L58.9 34L0 68L-58.9 34L-58.9 -34Z" fill="#431407"></path></g></g></svg>