<svg id="visual" viewBox="0 0 960 540" width="960" height="540" xmlns="http://www.w3.org/2000/svg" xmlns:xlink="http://www.w3.org/1999/xlink" version="1.1"><rect width="960" height="540" fill="#1d4ed8"></rect><g><g transform="translate(716 167)"><path d="M65.8 -21.3C73.7 3.1 60.7 34.3 38.4 49.8C16 65.3 -15.6 65.1 -36.3 50C-57 35 -66.8 5 -59 -19.2C-51.1 -43.5 -25.5 -62 1.7 -62.6C28.9 -63.1 57.8 -45.7 65.8 -21.3Z" stroke="#0ea5e9" fill="none" stroke-width="20"></path></g><g transform="translate(253 408)"><path d="M42.7 -11.4C48.8 5 42.8 27.9 28.5 38C14.1 48.2 -8.6 45.7 -23.5 34.4C-38.4 23.1 -45.4 3 -40.2 -12.2C-35 -27.4 -17.5 -37.8 0.4 -37.9C18.3 -38.1 36.5 -27.9 42.7 -11.4Z" stroke="#0ea5e9" fill="none" stroke-width="20"></path></g><g transform="translate(261 150)"><path d="M38.9 -13.1C44 3 37.3 22.6 24.2 31.7C11.1 40.8 -8.3 39.5 -21.5 29.9C-34.6 20.3 -41.5 2.3 -36.9 -13.2C-32.2 -28.6 -16.1 -41.6 0.4 -41.7C16.9 -41.8 33.8 -29.2 38.9 -13.1Z" stroke="#0ea5e9" fill="none" stroke-width="20"></path></g><g transform="translate(788 427)"><path d="M49.6 -14.9C56.4 5 48.8 30.8 31.9 42.7C15 54.7 -11 52.8 -27.6 40.2C-44.2 27.6 -51.3 4.3 -45.2 -14.6C-39 -33.5 -19.5 -48 0.9 -48.3C21.4 -48.6 42.7 -34.7 49.6 -14.9Z" stroke="#0ea5e9" fill="none" stroke-width="20"></path></g><g transform="translate(514 350)"><path d="M50.1 -16.6C56.7 4 48.2 29.3 30.6 42C13.1 54.7 -13.5 54.9 -30.5 42.5C-47.5 30 -55 4.9 -48.3 -15.9C-41.6 -36.7 -20.8 -53 0.5 -53.2C21.8 -53.3 43.5 -37.3 50.1 -16.6Z" stroke="#0ea5e9" fill="none" stroke-width="20"></path></g></g></svg>