<svg id="visual" viewBox="0 0 540 960" width="540" height="960" xmlns="http://www.w3.org/2000/svg" xmlns:xlink="http://www.w3.org/1999/xlink" version="1.1"><rect x="0" y="0" width="540" height="960" fill="#3b82f6"></rect><path d="M0 632L12.8 640.7C25.7 649.3 51.3 666.7 77 670.5C102.7 674.3 128.3 664.7 154 657C179.7 649.3 205.3 643.7 231.2 634.3C257 625 283 612 308.8 600.2C334.7 588.3 360.3 577.7 386 593C411.7 608.3 437.3 649.7 463 669C488.7 688.3 514.3 685.7 527.2 684.3L540 683L540 961L527.2 961C514.3 961 488.7 961 463 961C437.3 961 411.7 961 386 961C360.3 961 334.7 961 308.8 961C283 961 257 961 231.2 961C205.3 961 179.7 961 154 961C128.3 961 102.7 961 77 961C51.3 961 25.7 961 12.8 961L0 961Z" fill="#1d4ed8"></path><path d="M0 745L12.8 729C25.7 713 51.3 681 77 670.7C102.7 660.3 128.3 671.7 154 681.5C179.7 691.3 205.3 699.7 231.2 699C257 698.3 283 688.7 308.8 686.8C334.7 685 360.3 691 386 685.3C411.7 679.7 437.3 662.3 463 673.5C488.7 684.7 514.3 724.3 527.2 744.2L540 764L540 961L527.2 961C514.3 961 488.7 961 463 961C437.3 961 411.7 961 386 961C360.3 961 334.7 961 308.8 961C283 961 257 961 231.2 961C205.3 961 179.7 961 154 961C128.3 961 102.7 961 77 961C51.3 961 25.7 961 12.8 961L0 961Z" fill="#273d9f"></path><path d="M0 710L12.8 709.5C25.7 709 51.3 708 77 707.7C102.7 707.3 128.3 707.7 154 713.3C179.7 719 205.3 730 231.2 744.2C257 758.3 283 775.7 308.8 785C334.7 794.3 360.3 795.7 386 780.3C411.7 765 437.3 733 463 731.3C488.7 729.7 514.3 758.3 527.2 772.7L540 787L540 961L527.2 961C514.3 961 488.7 961 463 961C437.3 961 411.7 961 386 961C360.3 961 334.7 961 308.8 961C283 961 257 961 231.2 961C205.3 961 179.7 961 154 961C128.3 961 102.7 961 77 961C51.3 961 25.7 961 12.8 961L0 961Z" fill="#252c6a"></path><path d="M0 825L12.8 816.2C25.7 807.3 51.3 789.7 77 782.7C102.7 775.7 128.3 779.3 154 784.2C179.7 789 205.3 795 231.2 794.3C257 793.7 283 786.3 308.8 796C334.7 805.7 360.3 832.3 386 833C411.7 833.7 437.3 808.3 463 796.8C488.7 785.3 514.3 787.7 527.2 788.8L540 790L540 961L527.2 961C514.3 961 488.7 961 463 961C437.3 961 411.7 961 386 961C360.3 961 334.7 961 308.8 961C283 961 257 961 231.2 961C205.3 961 179.7 961 154 961C128.3 961 102.7 961 77 961C51.3 961 25.7 961 12.8 961L0 961Z" fill="#1c1c39"></path><path d="M0 896L12.8 893.5C25.7 891 51.3 886 77 885C102.7 884 128.3 887 154 887.7C179.7 888.3 205.3 886.7 231.2 883C257 879.3 283 873.7 308.8 879C334.7 884.3 360.3 900.7 386 902.3C411.7 904 437.3 891 463 880.8C488.7 870.7 514.3 863.3 527.2 859.7L540 856L540 961L527.2 961C514.3 961 488.7 961 463 961C437.3 961 411.7 961 386 961C360.3 961 334.7 961 308.8 961C283 961 257 961 231.2 961C205.3 961 179.7 961 154 961C128.3 961 102.7 961 77 961C51.3 961 25.7 961 12.8 961L0 961Z" fill="#0a0a0a"></path></svg>