<svg id="visual" viewBox="0 0 960 540" width="960" height="540" xmlns="http://www.w3.org/2000/svg" xmlns:xlink="http://www.w3.org/1999/xlink" version="1.1"><rect width="960" height="540" fill="#fafafa"></rect><g><g transform="translate(777 379)"><path d="M0 -53.1L46 -26.6L46 26.6L0 53.1L-46 26.6L-46 -26.6Z" fill="#ffedd5"></path></g><g transform="translate(804 182)"><path d="M0 -50L43.3 -25L43.3 25L0 50L-43.3 25L-43.3 -25Z" fill="#ffedd5"></path></g><g transform="translate(537 71)"><path d="M0 -40L34.6 -20L34.6 20L0 40L-34.6 20L-34.6 -20Z" fill="#ffedd5"></path></g><g transform="translate(151 137)"><path d="M0 -41L35.5 -20.5L35.5 20.5L0 41L-35.5 20.5L-35.5 -20.5Z" fill="#ffedd5"></path></g><g transform="translate(272 207)"><path d="M0 -50L43.3 -25L43.3 25L0 50L-43.3 25L-43.3 -25Z" fill="#ffedd5"></path></g><g transform="translate(568 480)"><path d="M0 -38L32.9 -19L32.9 19L0 38L-32.9 19L-32.9 -19Z" fill="#ffedd5"></path></g><g transform="translate(356 114)"><path d="M0 -33L28.6 -16.5L28.6 16.5L0 33L-28.6 16.5L-28.6 -16.5Z" fill="#ffedd5"></path></g><g transform="translate(891 395)"><path d="M0 -26L22.5 -13L22.5 13L0 26L-22.5 13L-22.5 -13Z" fill="#ffedd5"></path></g><g transform="translate(241 335)"><path d="M0 -32L27.7 -16L27.7 16L0 32L-27.7 16L-27.7 -16Z" fill="#ffedd5"></path></g></g></svg>