<svg id="visual" viewBox="0 0 540 960" width="540" height="960" xmlns="http://www.w3.org/2000/svg" xmlns:xlink="http://www.w3.org/1999/xlink" version="1.1"><rect x="0" y="0" width="540" height="960" fill="#3b82f6"></rect><path d="M0 603L12.8 621.3C25.7 639.7 51.3 676.3 77 675.7C102.7 675 128.3 637 154 626.8C179.7 616.7 205.3 634.3 231.2 627.7C257 621 283 590 308.8 598.7C334.7 607.3 360.3 655.7 386 669.8C411.7 684 437.3 664 463 648.2C488.7 632.3 514.3 620.7 527.2 614.8L540 609L540 961L527.2 961C514.3 961 488.7 961 463 961C437.3 961 411.7 961 386 961C360.3 961 334.7 961 308.8 961C283 961 257 961 231.2 961C205.3 961 179.7 961 154 961C128.3 961 102.7 961 77 961C51.3 961 25.7 961 12.8 961L0 961Z" fill="#7dd3fc"></path><path d="M0 694L12.8 694.8C25.7 695.7 51.3 697.3 77 686.8C102.7 676.3 128.3 653.7 154 646C179.7 638.3 205.3 645.7 231.2 651.8C257 658 283 663 308.8 664.7C334.7 666.3 360.3 664.7 386 663.5C411.7 662.3 437.3 661.7 463 677.8C488.7 694 514.3 727 527.2 743.5L540 760L540 961L527.2 961C514.3 961 488.7 961 463 961C437.3 961 411.7 961 386 961C360.3 961 334.7 961 308.8 961C283 961 257 961 231.2 961C205.3 961 179.7 961 154 961C128.3 961 102.7 961 77 961C51.3 961 25.7 961 12.8 961L0 961Z" fill="#a2dcfc"></path><path d="M0 801L12.8 792.2C25.7 783.3 51.3 765.7 77 765.3C102.7 765 128.3 782 154 791.2C179.7 800.3 205.3 801.7 231.2 791.2C257 780.7 283 758.3 308.8 757.2C334.7 756 360.3 776 386 788.8C411.7 801.7 437.3 807.3 463 801.3C488.7 795.3 514.3 777.7 527.2 768.8L540 760L540 961L527.2 961C514.3 961 488.7 961 463 961C437.3 961 411.7 961 386 961C360.3 961 334.7 961 308.8 961C283 961 257 961 231.2 961C205.3 961 179.7 961 154 961C128.3 961 102.7 961 77 961C51.3 961 25.7 961 12.8 961L0 961Z" fill="#c2e6fb"></path><path d="M0 867L12.8 866.3C25.7 865.7 51.3 864.3 77 859.7C102.7 855 128.3 847 154 844.3C179.7 841.7 205.3 844.3 231.2 846C257 847.7 283 848.3 308.8 849.5C334.7 850.7 360.3 852.3 386 845.7C411.7 839 437.3 824 463 818.8C488.7 813.7 514.3 818.3 527.2 820.7L540 823L540 961L527.2 961C514.3 961 488.7 961 463 961C437.3 961 411.7 961 386 961C360.3 961 334.7 961 308.8 961C283 961 257 961 231.2 961C205.3 961 179.7 961 154 961C128.3 961 102.7 961 77 961C51.3 961 25.7 961 12.8 961L0 961Z" fill="#dff0fb"></path><path d="M0 866L12.8 870.2C25.7 874.3 51.3 882.7 77 885.3C102.7 888 128.3 885 154 885.3C179.7 885.7 205.3 889.3 231.2 885.3C257 881.3 283 869.7 308.8 871.7C334.7 873.7 360.3 889.3 386 895C411.7 900.7 437.3 896.3 463 895.5C488.7 894.7 514.3 897.3 527.2 898.7L540 900L540 961L527.2 961C514.3 961 488.7 961 463 961C437.3 961 411.7 961 386 961C360.3 961 334.7 961 308.8 961C283 961 257 961 231.2 961C205.3 961 179.7 961 154 961C128.3 961 102.7 961 77 961C51.3 961 25.7 961 12.8 961L0 961Z" fill="#fafafa"></path></svg>