<svg id="visual" viewBox="0 0 960 540" width="960" height="540" xmlns="http://www.w3.org/2000/svg" xmlns:xlink="http://www.w3.org/1999/xlink" version="1.1"><rect x="0" y="0" width="960" height="540" fill="#3b82f6"></rect><g transform="translate(480.31956944829074 260.0594135939156)"><path d="M149.4 -216.2C176.2 -186.2 168.3 -119.2 191.2 -59.6C214 0 267.5 52.1 265.4 94.8C263.4 137.5 205.7 170.7 152.2 202.5C98.7 234.2 49.4 264.6 4.1 259C-41.1 253.3 -82.3 211.6 -118.6 174.2C-154.9 136.9 -186.3 103.8 -215.4 59.4C-244.4 14.9 -271.1 -40.9 -265.3 -94.8C-259.6 -148.6 -221.5 -200.5 -171.9 -223.1C-122.3 -245.6 -61.1 -238.8 0.1 -238.9C61.3 -239.1 122.7 -246.1 149.4 -216.2" fill="#1d4ed8"></path></g></svg>