<svg id="visual" viewBox="0 0 540 960" width="540" height="960" xmlns="http://www.w3.org/2000/svg" xmlns:xlink="http://www.w3.org/1999/xlink" version="1.1"><rect width="540" height="960" fill="#1d4ed8"></rect><g><g transform="translate(145 842)"><path d="M71.4 -21.9C81.8 8.9 72.2 47.5 48.7 63.9C25.2 80.2 -12.2 74.2 -36.9 55.2C-61.6 36.2 -73.7 4.2 -65.4 -23.7C-57.1 -51.5 -28.6 -75.2 0.9 -75.5C30.5 -75.8 60.9 -52.7 71.4 -21.9Z" stroke="#0ea5e9" fill="none" stroke-width="20"></path></g><g transform="translate(401 196)"><path d="M67 -23.1C74.7 2.1 60.6 33.1 38.2 48.4C15.7 63.7 -15.1 63.4 -37.7 47.9C-60.4 32.4 -74.9 1.7 -67.2 -23.4C-59.6 -48.4 -29.8 -67.7 -0.1 -67.7C29.6 -67.7 59.2 -48.3 67 -23.1Z" stroke="#0ea5e9" fill="none" stroke-width="20"></path></g><g transform="translate(410 548)"><path d="M47.7 -15C55 6.9 49.4 33.6 33.3 45C17.3 56.4 -9.1 52.7 -27.2 39.1C-45.3 25.6 -55.1 2.2 -49.2 -17.8C-43.3 -37.8 -21.6 -54.5 -0.7 -54.3C20.2 -54 40.4 -36.9 47.7 -15Z" stroke="#0ea5e9" fill="none" stroke-width="20"></path></g><g transform="translate(184 300)"><path d="M39.9 -11.5C46 5.6 41.1 27.7 26.5 39C11.8 50.2 -12.6 50.6 -27.5 39.4C-42.5 28.2 -47.9 5.4 -41.7 -11.8C-35.5 -29.1 -17.8 -40.9 -0.4 -40.7C16.9 -40.6 33.9 -28.6 39.9 -11.5Z" stroke="#0ea5e9" fill="none" stroke-width="20"></path></g><g transform="translate(196 570)"><path d="M36.4 -13.1C41.3 3.3 35.4 21.9 22.7 31C10.1 40.2 -9.3 39.8 -22.6 30.4C-35.8 20.9 -43 2.3 -38.2 -13.9C-33.4 -30 -16.7 -43.8 -0.5 -43.6C15.8 -43.5 31.5 -29.4 36.4 -13.1Z" stroke="#0ea5e9" fill="none" stroke-width="20"></path></g></g></svg>