<svg id="visual" viewBox="0 0 960 540" width="960" height="540" xmlns="http://www.w3.org/2000/svg" xmlns:xlink="http://www.w3.org/1999/xlink" version="1.1"><rect width="960" height="540" fill="#0a0a0a"></rect><g><g transform="translate(383 248)"><path d="M0 -104.1L90.1 -52L90.1 52L0 104.1L-90.1 52L-90.1 -52Z" fill="#431407"></path></g><g transform="translate(554 397)"><path d="M0 -83L71.9 -41.5L71.9 41.5L0 83L-71.9 41.5L-71.9 -41.5Z" fill="#431407"></path></g><g transform="translate(830 296)"><path d="M0 -99L85.7 -49.5L85.7 49.5L0 99L-85.7 49.5L-85.7 -49.5Z" fill="#431407"></path></g><g transform="translate(129 134)"><path d="M0 -96L83.1 -48L83.1 48L0 96L-83.1 48L-83.1 -48Z" fill="#431407"></path></g></g></svg>