<svg id="visual" viewBox="0 0 960 270" width="960" height="270" xmlns="http://www.w3.org/2000/svg" xmlns:xlink="http://www.w3.org/1999/xlink" version="1.1"><rect x="0" y="0" width="960" height="270" fill="#3b82f6"></rect><path d="M0 195L22.8 189.2C45.7 183.3 91.3 171.7 137 169.8C182.7 168 228.3 176 274 178.7C319.7 181.3 365.3 178.7 411.2 176.5C457 174.3 503 172.7 548.8 172.3C594.7 172 640.3 173 686 177.8C731.7 182.7 777.3 191.3 823 190.3C868.7 189.3 914.3 178.7 937.2 173.3L960 168L960 271L937.2 271C914.3 271 868.7 271 823 271C777.3 271 731.7 271 686 271C640.3 271 594.7 271 548.8 271C503 271 457 271 411.2 271C365.3 271 319.7 271 274 271C228.3 271 182.7 271 137 271C91.3 271 45.7 271 22.8 271L0 271Z" fill="#b45309"></path><path d="M0 182L22.8 183C45.7 184 91.3 186 137 185.3C182.7 184.7 228.3 181.3 274 184.2C319.7 187 365.3 196 411.2 200C457 204 503 203 548.8 203.3C594.7 203.7 640.3 205.3 686 201.7C731.7 198 777.3 189 823 185.2C868.7 181.3 914.3 182.7 937.2 183.3L960 184L960 271L937.2 271C914.3 271 868.7 271 823 271C777.3 271 731.7 271 686 271C640.3 271 594.7 271 548.8 271C503 271 457 271 411.2 271C365.3 271 319.7 271 274 271C228.3 271 182.7 271 137 271C91.3 271 45.7 271 22.8 271L0 271Z" fill="#874110"></path><path d="M0 198L22.8 202.7C45.7 207.3 91.3 216.7 137 216.7C182.7 216.7 228.3 207.3 274 203.7C319.7 200 365.3 202 411.2 202C457 202 503 200 548.8 203C594.7 206 640.3 214 686 217.3C731.7 220.7 777.3 219.3 823 217.7C868.7 216 914.3 214 937.2 213L960 212L960 271L937.2 271C914.3 271 868.7 271 823 271C777.3 271 731.7 271 686 271C640.3 271 594.7 271 548.8 271C503 271 457 271 411.2 271C365.3 271 319.7 271 274 271C228.3 271 182.7 271 137 271C91.3 271 45.7 271 22.8 271L0 271Z" fill="#5c2f12"></path><path d="M0 217L22.8 219C45.7 221 91.3 225 137 228.2C182.7 231.3 228.3 233.7 274 235.3C319.7 237 365.3 238 411.2 238.8C457 239.7 503 240.3 548.8 237.3C594.7 234.3 640.3 227.7 686 224.3C731.7 221 777.3 221 823 221.7C868.7 222.3 914.3 223.7 937.2 224.3L960 225L960 271L937.2 271C914.3 271 868.7 271 823 271C777.3 271 731.7 271 686 271C640.3 271 594.7 271 548.8 271C503 271 457 271 411.2 271C365.3 271 319.7 271 274 271C228.3 271 182.7 271 137 271C91.3 271 45.7 271 22.8 271L0 271Z" fill="#341e10"></path><path d="M0 248L22.8 248.2C45.7 248.3 91.3 248.7 137 246.8C182.7 245 228.3 241 274 242C319.7 243 365.3 249 411.2 250.2C457 251.3 503 247.7 548.8 246.3C594.7 245 640.3 246 686 247.2C731.7 248.3 777.3 249.7 823 249C868.7 248.3 914.3 245.7 937.2 244.3L960 243L960 271L937.2 271C914.3 271 868.7 271 823 271C777.3 271 731.7 271 686 271C640.3 271 594.7 271 548.8 271C503 271 457 271 411.2 271C365.3 271 319.7 271 274 271C228.3 271 182.7 271 137 271C91.3 271 45.7 271 22.8 271L0 271Z" fill="#0a0a0a"></path></svg>