<svg id="visual" viewBox="0 0 540 480" width="540" height="480" xmlns="http://www.w3.org/2000/svg" xmlns:xlink="http://www.w3.org/1999/xlink" version="1.1"><rect x="0" y="0" width="540" height="480" fill="#3b82f6"></rect><path d="M0 348L12.8 337.5C25.7 327 51.3 306 77 302.7C102.7 299.3 128.3 313.7 154 318.5C179.7 323.3 205.3 318.7 231.2 314.8C257 311 283 308 308.8 307.3C334.7 306.7 360.3 308.3 386 317C411.7 325.7 437.3 341.3 463 339.5C488.7 337.7 514.3 318.3 527.2 308.7L540 299L540 481L527.2 481C514.3 481 488.7 481 463 481C437.3 481 411.7 481 386 481C360.3 481 334.7 481 308.8 481C283 481 257 481 231.2 481C205.3 481 179.7 481 154 481C128.3 481 102.7 481 77 481C51.3 481 25.7 481 12.8 481L0 481Z" fill="#fcd34d"></path><path d="M0 324L12.8 325.8C25.7 327.7 51.3 331.3 77 330.2C102.7 329 128.3 323 154 327.8C179.7 332.7 205.3 348.3 231.2 355.7C257 363 283 362 308.8 362.7C334.7 363.3 360.3 365.7 386 358.8C411.7 352 437.3 336 463 329.3C488.7 322.7 514.3 325.3 527.2 326.7L540 328L540 481L527.2 481C514.3 481 488.7 481 463 481C437.3 481 411.7 481 386 481C360.3 481 334.7 481 308.8 481C283 481 257 481 231.2 481C205.3 481 179.7 481 154 481C128.3 481 102.7 481 77 481C51.3 481 25.7 481 12.8 481L0 481Z" fill="#f7df7c"></path><path d="M0 353L12.8 361.3C25.7 369.7 51.3 386.3 77 386.3C102.7 386.3 128.3 369.7 154 363.2C179.7 356.7 205.3 360.3 231.2 360.2C257 360 283 356 308.8 361.2C334.7 366.3 360.3 380.7 386 386.7C411.7 392.7 437.3 390.3 463 387.3C488.7 384.3 514.3 380.7 527.2 378.8L540 377L540 481L527.2 481C514.3 481 488.7 481 463 481C437.3 481 411.7 481 386 481C360.3 481 334.7 481 308.8 481C283 481 257 481 231.2 481C205.3 481 179.7 481 154 481C128.3 481 102.7 481 77 481C51.3 481 25.7 481 12.8 481L0 481Z" fill="#f5eaa7"></path><path d="M0 387L12.8 390.5C25.7 394 51.3 401 77 406.5C102.7 412 128.3 416 154 419C179.7 422 205.3 424 231.2 425.5C257 427 283 428 308.8 422.5C334.7 417 360.3 405 386 399.2C411.7 393.3 437.3 393.7 463 394.8C488.7 396 514.3 398 527.2 399L540 400L540 481L527.2 481C514.3 481 488.7 481 463 481C437.3 481 411.7 481 386 481C360.3 481 334.7 481 308.8 481C283 481 257 481 231.2 481C205.3 481 179.7 481 154 481C128.3 481 102.7 481 77 481C51.3 481 25.7 481 12.8 481L0 481Z" fill="#f6f3d1"></path><path d="M0 442L12.8 442.3C25.7 442.7 51.3 443.3 77 440.2C102.7 437 128.3 430 154 431.7C179.7 433.3 205.3 443.7 231.2 445.7C257 447.7 283 441.3 308.8 439C334.7 436.7 360.3 438.3 386 440.3C411.7 442.3 437.3 444.7 463 443.5C488.7 442.3 514.3 437.7 527.2 435.3L540 433L540 481L527.2 481C514.3 481 488.7 481 463 481C437.3 481 411.7 481 386 481C360.3 481 334.7 481 308.8 481C283 481 257 481 231.2 481C205.3 481 179.7 481 154 481C128.3 481 102.7 481 77 481C51.3 481 25.7 481 12.8 481L0 481Z" fill="#fafaf9"></path></svg>