<svg id="visual" viewBox="0 0 960 270" width="960" height="270" xmlns="http://www.w3.org/2000/svg" xmlns:xlink="http://www.w3.org/1999/xlink" version="1.1"><rect x="0" y="0" width="960" height="270" fill="#3b82f6"></rect><path d="M0 166L22.8 171.7C45.7 177.3 91.3 188.7 137 193C182.7 197.3 228.3 194.7 274 189.8C319.7 185 365.3 178 411.2 174.3C457 170.7 503 170.3 548.8 174.7C594.7 179 640.3 188 686 186C731.7 184 777.3 171 823 168.8C868.7 166.7 914.3 175.3 937.2 179.7L960 184L960 271L937.2 271C914.3 271 868.7 271 823 271C777.3 271 731.7 271 686 271C640.3 271 594.7 271 548.8 271C503 271 457 271 411.2 271C365.3 271 319.7 271 274 271C228.3 271 182.7 271 137 271C91.3 271 45.7 271 22.8 271L0 271Z" fill="#ef4444"></path><path d="M0 189L22.8 193.2C45.7 197.3 91.3 205.7 137 205.2C182.7 204.7 228.3 195.3 274 189.3C319.7 183.3 365.3 180.7 411.2 180C457 179.3 503 180.7 548.8 186.3C594.7 192 640.3 202 686 202.7C731.7 203.3 777.3 194.7 823 193.3C868.7 192 914.3 198 937.2 201L960 204L960 271L937.2 271C914.3 271 868.7 271 823 271C777.3 271 731.7 271 686 271C640.3 271 594.7 271 548.8 271C503 271 457 271 411.2 271C365.3 271 319.7 271 274 271C228.3 271 182.7 271 137 271C91.3 271 45.7 271 22.8 271L0 271Z" fill="#b13936"></path><path d="M0 221L22.8 217.3C45.7 213.7 91.3 206.3 137 202.8C182.7 199.3 228.3 199.7 274 201.3C319.7 203 365.3 206 411.2 205.7C457 205.3 503 201.7 548.8 202C594.7 202.3 640.3 206.7 686 211C731.7 215.3 777.3 219.7 823 218.2C868.7 216.7 914.3 209.3 937.2 205.7L960 202L960 271L937.2 271C914.3 271 868.7 271 823 271C777.3 271 731.7 271 686 271C640.3 271 594.7 271 548.8 271C503 271 457 271 411.2 271C365.3 271 319.7 271 274 271C228.3 271 182.7 271 137 271C91.3 271 45.7 271 22.8 271L0 271Z" fill="#762c28"></path><path d="M0 227L22.8 226.5C45.7 226 91.3 225 137 226.7C182.7 228.3 228.3 232.7 274 235.2C319.7 237.7 365.3 238.3 411.2 238.7C457 239 503 239 548.8 238.2C594.7 237.3 640.3 235.7 686 235.3C731.7 235 777.3 236 823 234C868.7 232 914.3 227 937.2 224.5L960 222L960 271L937.2 271C914.3 271 868.7 271 823 271C777.3 271 731.7 271 686 271C640.3 271 594.7 271 548.8 271C503 271 457 271 411.2 271C365.3 271 319.7 271 274 271C228.3 271 182.7 271 137 271C91.3 271 45.7 271 22.8 271L0 271Z" fill="#401e1a"></path><path d="M0 239L22.8 241.7C45.7 244.3 91.3 249.7 137 250.7C182.7 251.7 228.3 248.3 274 247.5C319.7 246.7 365.3 248.3 411.2 249.8C457 251.3 503 252.7 548.8 251C594.7 249.3 640.3 244.7 686 243.3C731.7 242 777.3 244 823 246.2C868.7 248.3 914.3 250.7 937.2 251.8L960 253L960 271L937.2 271C914.3 271 868.7 271 823 271C777.3 271 731.7 271 686 271C640.3 271 594.7 271 548.8 271C503 271 457 271 411.2 271C365.3 271 319.7 271 274 271C228.3 271 182.7 271 137 271C91.3 271 45.7 271 22.8 271L0 271Z" fill="#0a0a0a"></path></svg>