<svg id="visual" viewBox="0 0 540 960" width="540" height="960" xmlns="http://www.w3.org/2000/svg" xmlns:xlink="http://www.w3.org/1999/xlink" version="1.1"><rect width="540" height="960" fill="#0a0a0a"></rect><g><g transform="translate(343 280)"><path d="M0 -104.1L90.1 -52L90.1 52L0 104.1L-90.1 52L-90.1 -52Z" fill="#422006"></path></g><g transform="translate(344 773)"><path d="M0 -70L60.6 -35L60.6 35L0 70L-60.6 35L-60.6 -35Z" fill="#422006"></path></g><g transform="translate(123 739)"><path d="M0 -82L71 -41L71 41L0 82L-71 41L-71 -41Z" fill="#422006"></path></g><g transform="translate(420 527)"><path d="M0 -55L47.6 -27.5L47.6 27.5L0 55L-47.6 27.5L-47.6 -27.5Z" fill="#422006"></path></g></g></svg>