<svg id="visual" viewBox="0 0 960 270" width="960" height="270" xmlns="http://www.w3.org/2000/svg" xmlns:xlink="http://www.w3.org/1999/xlink" version="1.1"><rect x="0" y="0" width="960" height="270" fill="#3b82f6"></rect><path d="M0 163L22.8 163C45.7 163 91.3 163 137 167.3C182.7 171.7 228.3 180.3 274 183.8C319.7 187.3 365.3 185.7 411.2 182.3C457 179 503 174 548.8 171.5C594.7 169 640.3 169 686 174C731.7 179 777.3 189 823 191C868.7 193 914.3 187 937.2 184L960 181L960 271L937.2 271C914.3 271 868.7 271 823 271C777.3 271 731.7 271 686 271C640.3 271 594.7 271 548.8 271C503 271 457 271 411.2 271C365.3 271 319.7 271 274 271C228.3 271 182.7 271 137 271C91.3 271 45.7 271 22.8 271L0 271Z" fill="#eab308"></path><path d="M0 196L22.8 199.2C45.7 202.3 91.3 208.7 137 211.8C182.7 215 228.3 215 274 213.7C319.7 212.3 365.3 209.7 411.2 204.8C457 200 503 193 548.8 193.5C594.7 194 640.3 202 686 205.2C731.7 208.3 777.3 206.7 823 207.5C868.7 208.3 914.3 211.7 937.2 213.3L960 215L960 271L937.2 271C914.3 271 868.7 271 823 271C777.3 271 731.7 271 686 271C640.3 271 594.7 271 548.8 271C503 271 457 271 411.2 271C365.3 271 319.7 271 274 271C228.3 271 182.7 271 137 271C91.3 271 45.7 271 22.8 271L0 271Z" fill="#ad8517"></path><path d="M0 203L22.8 204.2C45.7 205.3 91.3 207.7 137 210.7C182.7 213.7 228.3 217.3 274 216C319.7 214.7 365.3 208.3 411.2 208.5C457 208.7 503 215.3 548.8 219.3C594.7 223.3 640.3 224.7 686 224.5C731.7 224.3 777.3 222.7 823 222.5C868.7 222.3 914.3 223.7 937.2 224.3L960 225L960 271L937.2 271C914.3 271 868.7 271 823 271C777.3 271 731.7 271 686 271C640.3 271 594.7 271 548.8 271C503 271 457 271 411.2 271C365.3 271 319.7 271 274 271C228.3 271 182.7 271 137 271C91.3 271 45.7 271 22.8 271L0 271Z" fill="#735919"></path><path d="M0 239L22.8 239.5C45.7 240 91.3 241 137 239.3C182.7 237.7 228.3 233.3 274 230.8C319.7 228.3 365.3 227.7 411.2 225.8C457 224 503 221 548.8 222.7C594.7 224.3 640.3 230.7 686 234C731.7 237.3 777.3 237.7 823 237.5C868.7 237.3 914.3 236.7 937.2 236.3L960 236L960 271L937.2 271C914.3 271 868.7 271 823 271C777.3 271 731.7 271 686 271C640.3 271 594.7 271 548.8 271C503 271 457 271 411.2 271C365.3 271 319.7 271 274 271C228.3 271 182.7 271 137 271C91.3 271 45.7 271 22.8 271L0 271Z" fill="#3e3115"></path><path d="M0 243L22.8 242.3C45.7 241.7 91.3 240.3 137 239.8C182.7 239.3 228.3 239.7 274 242.2C319.7 244.7 365.3 249.3 411.2 250.3C457 251.3 503 248.7 548.8 247.2C594.7 245.7 640.3 245.3 686 245.7C731.7 246 777.3 247 823 247.7C868.7 248.3 914.3 248.7 937.2 248.8L960 249L960 271L937.2 271C914.3 271 868.7 271 823 271C777.3 271 731.7 271 686 271C640.3 271 594.7 271 548.8 271C503 271 457 271 411.2 271C365.3 271 319.7 271 274 271C228.3 271 182.7 271 137 271C91.3 271 45.7 271 22.8 271L0 271Z" fill="#0a0a0a"></path></svg>