<svg id="visual" viewBox="0 0 540 580" width="540" height="580" xmlns="http://www.w3.org/2000/svg" xmlns:xlink="http://www.w3.org/1999/xlink" version="1.1"><rect x="0" y="0" width="540" height="580" fill="#3b82f6"></rect><path d="M0 373L12.8 369.8C25.7 366.7 51.3 360.3 77 358.5C102.7 356.7 128.3 359.3 154 363.5C179.7 367.7 205.3 373.3 231.2 380C257 386.7 283 394.3 308.8 392.7C334.7 391 360.3 380 386 370.5C411.7 361 437.3 353 463 350.5C488.7 348 514.3 351 527.2 352.5L540 354L540 581L527.2 581C514.3 581 488.7 581 463 581C437.3 581 411.7 581 386 581C360.3 581 334.7 581 308.8 581C283 581 257 581 231.2 581C205.3 581 179.7 581 154 581C128.3 581 102.7 581 77 581C51.3 581 25.7 581 12.8 581L0 581Z" fill="#6366f1"></path><path d="M0 457L12.8 447.8C25.7 438.7 51.3 420.3 77 417.8C102.7 415.3 128.3 428.7 154 436.3C179.7 444 205.3 446 231.2 441.7C257 437.3 283 426.7 308.8 424.8C334.7 423 360.3 430 386 433.5C411.7 437 437.3 437 463 439.3C488.7 441.7 514.3 446.3 527.2 448.7L540 451L540 581L527.2 581C514.3 581 488.7 581 463 581C437.3 581 411.7 581 386 581C360.3 581 334.7 581 308.8 581C283 581 257 581 231.2 581C205.3 581 179.7 581 154 581C128.3 581 102.7 581 77 581C51.3 581 25.7 581 12.8 581L0 581Z" fill="#4f4eb1"></path><path d="M0 483L12.8 477.2C25.7 471.3 51.3 459.7 77 461.2C102.7 462.7 128.3 477.3 154 484.8C179.7 492.3 205.3 492.7 231.2 489.5C257 486.3 283 479.7 308.8 471.2C334.7 462.7 360.3 452.3 386 455C411.7 457.7 437.3 473.3 463 480.8C488.7 488.3 514.3 487.7 527.2 487.3L540 487L540 581L527.2 581C514.3 581 488.7 581 463 581C437.3 581 411.7 581 386 581C360.3 581 334.7 581 308.8 581C283 581 257 581 231.2 581C205.3 581 179.7 581 154 581C128.3 581 102.7 581 77 581C51.3 581 25.7 581 12.8 581L0 581Z" fill="#3a3775"></path><path d="M0 493L12.8 491.5C25.7 490 51.3 487 77 492.2C102.7 497.3 128.3 510.7 154 516.2C179.7 521.7 205.3 519.3 231.2 512.7C257 506 283 495 308.8 489.8C334.7 484.7 360.3 485.3 386 488.8C411.7 492.3 437.3 498.7 463 498.2C488.7 497.7 514.3 490.3 527.2 486.7L540 483L540 581L527.2 581C514.3 581 488.7 581 463 581C437.3 581 411.7 581 386 581C360.3 581 334.7 581 308.8 581C283 581 257 581 231.2 581C205.3 581 179.7 581 154 581C128.3 581 102.7 581 77 581C51.3 581 25.7 581 12.8 581L0 581Z" fill="#24213e"></path><path d="M0 523L12.8 525.2C25.7 527.3 51.3 531.7 77 534.5C102.7 537.3 128.3 538.7 154 536.5C179.7 534.3 205.3 528.7 231.2 527.7C257 526.7 283 530.3 308.8 535.2C334.7 540 360.3 546 386 549.3C411.7 552.7 437.3 553.3 463 552.8C488.7 552.3 514.3 550.7 527.2 549.8L540 549L540 581L527.2 581C514.3 581 488.7 581 463 581C437.3 581 411.7 581 386 581C360.3 581 334.7 581 308.8 581C283 581 257 581 231.2 581C205.3 581 179.7 581 154 581C128.3 581 102.7 581 77 581C51.3 581 25.7 581 12.8 581L0 581Z" fill="#0a0a0a"></path></svg>