<svg id="visual" viewBox="0 0 960 540" width="960" height="540" xmlns="http://www.w3.org/2000/svg" xmlns:xlink="http://www.w3.org/1999/xlink" version="1.1"><rect width="960" height="540" fill="#0a0a0a"></rect><g><g transform="translate(278 425)"><path d="M0 -104.1L90.1 -52L90.1 52L0 104.1L-90.1 52L-90.1 -52Z" fill="#1e1b4b"></path></g><g transform="translate(818 141)"><path d="M0 -76L65.8 -38L65.8 38L0 76L-65.8 38L-65.8 -38Z" fill="#1e1b4b"></path></g><g transform="translate(763 435)"><path d="M0 -52L45 -26L45 26L0 52L-45 26L-45 -26Z" fill="#1e1b4b"></path></g><g transform="translate(433 269)"><path d="M0 -57L49.4 -28.5L49.4 28.5L0 57L-49.4 28.5L-49.4 -28.5Z" fill="#1e1b4b"></path></g></g></svg>