<svg id="visual" viewBox="0 0 960 540" width="960" height="540" xmlns="http://www.w3.org/2000/svg" xmlns:xlink="http://www.w3.org/1999/xlink" version="1.1"><rect width="960" height="540" fill="#fafafa"></rect><g><g transform="translate(433 351)"><path d="M0 -104.1L90.1 -52L90.1 52L0 104.1L-90.1 52L-90.1 -52Z" fill="#e0e7ff"></path></g><g transform="translate(235 127)"><path d="M0 -70L60.6 -35L60.6 35L0 70L-60.6 35L-60.6 -35Z" fill="#e0e7ff"></path></g><g transform="translate(807 435)"><path d="M0 -85L73.6 -42.5L73.6 42.5L0 85L-73.6 42.5L-73.6 -42.5Z" fill="#e0e7ff"></path></g><g transform="translate(627 210)"><path d="M0 -52L45 -26L45 26L0 52L-45 26L-45 -26Z" fill="#e0e7ff"></path></g></g></svg>