<svg id="visual" viewBox="0 0 960 270" width="960" height="270" xmlns="http://www.w3.org/2000/svg" xmlns:xlink="http://www.w3.org/1999/xlink" version="1.1"><rect x="0" y="0" width="960" height="270" fill="#3b82f6"></rect><path d="M0 190L22.8 188.7C45.7 187.3 91.3 184.7 137 186.5C182.7 188.3 228.3 194.7 274 196.7C319.7 198.7 365.3 196.3 411.2 192.3C457 188.3 503 182.7 548.8 178.8C594.7 175 640.3 173 686 177C731.7 181 777.3 191 823 193.2C868.7 195.3 914.3 189.7 937.2 186.8L960 184L960 271L937.2 271C914.3 271 868.7 271 823 271C777.3 271 731.7 271 686 271C640.3 271 594.7 271 548.8 271C503 271 457 271 411.2 271C365.3 271 319.7 271 274 271C228.3 271 182.7 271 137 271C91.3 271 45.7 271 22.8 271L0 271Z" fill="#bef264"></path><path d="M0 186L22.8 186.8C45.7 187.7 91.3 189.3 137 188.5C182.7 187.7 228.3 184.3 274 186.5C319.7 188.7 365.3 196.3 411.2 200.5C457 204.7 503 205.3 548.8 206.7C594.7 208 640.3 210 686 205.7C731.7 201.3 777.3 190.7 823 185C868.7 179.3 914.3 178.7 937.2 178.3L960 178L960 271L937.2 271C914.3 271 868.7 271 823 271C777.3 271 731.7 271 686 271C640.3 271 594.7 271 548.8 271C503 271 457 271 411.2 271C365.3 271 319.7 271 274 271C228.3 271 182.7 271 137 271C91.3 271 45.7 271 22.8 271L0 271Z" fill="#cef587"></path><path d="M0 227L22.8 223.8C45.7 220.7 91.3 214.3 137 211C182.7 207.7 228.3 207.3 274 208.7C319.7 210 365.3 213 411.2 214.5C457 216 503 216 548.8 216C594.7 216 640.3 216 686 218C731.7 220 777.3 224 823 222C868.7 220 914.3 212 937.2 208L960 204L960 271L937.2 271C914.3 271 868.7 271 823 271C777.3 271 731.7 271 686 271C640.3 271 594.7 271 548.8 271C503 271 457 271 411.2 271C365.3 271 319.7 271 274 271C228.3 271 182.7 271 137 271C91.3 271 45.7 271 22.8 271L0 271Z" fill="#ddf8a7"></path><path d="M0 225L22.8 227.3C45.7 229.7 91.3 234.3 137 235.8C182.7 237.3 228.3 235.7 274 234C319.7 232.3 365.3 230.7 411.2 230C457 229.3 503 229.7 548.8 227.5C594.7 225.3 640.3 220.7 686 219C731.7 217.3 777.3 218.7 823 220.8C868.7 223 914.3 226 937.2 227.5L960 229L960 271L937.2 271C914.3 271 868.7 271 823 271C777.3 271 731.7 271 686 271C640.3 271 594.7 271 548.8 271C503 271 457 271 411.2 271C365.3 271 319.7 271 274 271C228.3 271 182.7 271 137 271C91.3 271 45.7 271 22.8 271L0 271Z" fill="#ebfbc7"></path><path d="M0 253L22.8 253.7C45.7 254.3 91.3 255.7 137 253.7C182.7 251.7 228.3 246.3 274 244.5C319.7 242.7 365.3 244.3 411.2 245C457 245.7 503 245.3 548.8 243.8C594.7 242.3 640.3 239.7 686 239C731.7 238.3 777.3 239.7 823 241.8C868.7 244 914.3 247 937.2 248.5L960 250L960 271L937.2 271C914.3 271 868.7 271 823 271C777.3 271 731.7 271 686 271C640.3 271 594.7 271 548.8 271C503 271 457 271 411.2 271C365.3 271 319.7 271 274 271C228.3 271 182.7 271 137 271C91.3 271 45.7 271 22.8 271L0 271Z" fill="#f7fee7"></path></svg>