<svg id="visual" viewBox="0 0 540 480" width="540" height="480" xmlns="http://www.w3.org/2000/svg" xmlns:xlink="http://www.w3.org/1999/xlink" version="1.1"><rect x="0" y="0" width="540" height="480" fill="#3b82f6"></rect><path d="M0 339L12.8 336.7C25.7 334.3 51.3 329.7 77 332.8C102.7 336 128.3 347 154 350.3C179.7 353.7 205.3 349.3 231.2 342.2C257 335 283 325 308.8 318.3C334.7 311.7 360.3 308.3 386 315.3C411.7 322.3 437.3 339.7 463 343.3C488.7 347 514.3 337 527.2 332L540 327L540 481L527.2 481C514.3 481 488.7 481 463 481C437.3 481 411.7 481 386 481C360.3 481 334.7 481 308.8 481C283 481 257 481 231.2 481C205.3 481 179.7 481 154 481C128.3 481 102.7 481 77 481C51.3 481 25.7 481 12.8 481L0 481Z" fill="#4d7c0f"></path><path d="M0 332L12.8 333.3C25.7 334.7 51.3 337.3 77 335.8C102.7 334.3 128.3 328.7 154 332.5C179.7 336.3 205.3 349.7 231.2 356.8C257 364 283 365 308.8 367.5C334.7 370 360.3 374 386 366.3C411.7 358.7 437.3 339.3 463 329.2C488.7 319 514.3 318 527.2 317.5L540 317L540 481L527.2 481C514.3 481 488.7 481 463 481C437.3 481 411.7 481 386 481C360.3 481 334.7 481 308.8 481C283 481 257 481 231.2 481C205.3 481 179.7 481 154 481C128.3 481 102.7 481 77 481C51.3 481 25.7 481 12.8 481L0 481Z" fill="#3d5e14"></path><path d="M0 404L12.8 398.3C25.7 392.7 51.3 381.3 77 375.5C102.7 369.7 128.3 369.3 154 371.8C179.7 374.3 205.3 379.7 231.2 382.3C257 385 283 385 308.8 385C334.7 385 360.3 385 386 388.5C411.7 392 437.3 399 463 395.5C488.7 392 514.3 378 527.2 371L540 364L540 481L527.2 481C514.3 481 488.7 481 463 481C437.3 481 411.7 481 386 481C360.3 481 334.7 481 308.8 481C283 481 257 481 231.2 481C205.3 481 179.7 481 154 481C128.3 481 102.7 481 77 481C51.3 481 25.7 481 12.8 481L0 481Z" fill="#2d4114"></path><path d="M0 400L12.8 404.2C25.7 408.3 51.3 416.7 77 419.5C102.7 422.3 128.3 419.7 154 416.8C179.7 414 205.3 411 231.2 409.7C257 408.3 283 408.7 308.8 404.7C334.7 400.7 360.3 392.3 386 389.7C411.7 387 437.3 390 463 394C488.7 398 514.3 403 527.2 405.5L540 408L540 481L527.2 481C514.3 481 488.7 481 463 481C437.3 481 411.7 481 386 481C360.3 481 334.7 481 308.8 481C283 481 257 481 231.2 481C205.3 481 179.7 481 154 481C128.3 481 102.7 481 77 481C51.3 481 25.7 481 12.8 481L0 481Z" fill="#1e2612"></path><path d="M0 451L12.8 452C25.7 453 51.3 455 77 451.3C102.7 447.7 128.3 438.3 154 435.3C179.7 432.3 205.3 435.7 231.2 436.7C257 437.7 283 436.3 308.8 433.7C334.7 431 360.3 427 386 426.2C411.7 425.3 437.3 427.7 463 431.3C488.7 435 514.3 440 527.2 442.5L540 445L540 481L527.2 481C514.3 481 488.7 481 463 481C437.3 481 411.7 481 386 481C360.3 481 334.7 481 308.8 481C283 481 257 481 231.2 481C205.3 481 179.7 481 154 481C128.3 481 102.7 481 77 481C51.3 481 25.7 481 12.8 481L0 481Z" fill="#0a0a0a"></path></svg>