<svg id="visual" viewBox="0 0 540 580" width="540" height="580" xmlns="http://www.w3.org/2000/svg" xmlns:xlink="http://www.w3.org/1999/xlink" version="1.1"><rect x="0" y="0" width="540" height="580" fill="#3b82f6"></rect><path d="M0 345L12.8 357.8C25.7 370.7 51.3 396.3 77 408.5C102.7 420.7 128.3 419.3 154 411.2C179.7 403 205.3 388 231.2 386C257 384 283 395 308.8 394.2C334.7 393.3 360.3 380.7 386 375C411.7 369.3 437.3 370.7 463 376.3C488.7 382 514.3 392 527.2 397L540 402L540 581L527.2 581C514.3 581 488.7 581 463 581C437.3 581 411.7 581 386 581C360.3 581 334.7 581 308.8 581C283 581 257 581 231.2 581C205.3 581 179.7 581 154 581C128.3 581 102.7 581 77 581C51.3 581 25.7 581 12.8 581L0 581Z" fill="#10b981"></path><path d="M0 381L12.8 381.7C25.7 382.3 51.3 383.7 77 389.3C102.7 395 128.3 405 154 417.8C179.7 430.7 205.3 446.3 231.2 447.7C257 449 283 436 308.8 423C334.7 410 360.3 397 386 395.7C411.7 394.3 437.3 404.7 463 404C488.7 403.3 514.3 391.7 527.2 385.8L540 380L540 581L527.2 581C514.3 581 488.7 581 463 581C437.3 581 411.7 581 386 581C360.3 581 334.7 581 308.8 581C283 581 257 581 231.2 581C205.3 581 179.7 581 154 581C128.3 581 102.7 581 77 581C51.3 581 25.7 581 12.8 581L0 581Z" fill="#1f8961"></path><path d="M0 463L12.8 465.8C25.7 468.7 51.3 474.3 77 469.5C102.7 464.7 128.3 449.3 154 445.5C179.7 441.7 205.3 449.3 231.2 447.7C257 446 283 435 308.8 433.3C334.7 431.7 360.3 439.3 386 448.8C411.7 458.3 437.3 469.7 463 476.5C488.7 483.3 514.3 485.7 527.2 486.8L540 488L540 581L527.2 581C514.3 581 488.7 581 463 581C437.3 581 411.7 581 386 581C360.3 581 334.7 581 308.8 581C283 581 257 581 231.2 581C205.3 581 179.7 581 154 581C128.3 581 102.7 581 77 581C51.3 581 25.7 581 12.8 581L0 581Z" fill="#205c43"></path><path d="M0 507L12.8 509.8C25.7 512.7 51.3 518.3 77 518C102.7 517.7 128.3 511.3 154 506.5C179.7 501.7 205.3 498.3 231.2 494C257 489.7 283 484.3 308.8 484C334.7 483.7 360.3 488.3 386 489.5C411.7 490.7 437.3 488.3 463 493.3C488.7 498.3 514.3 510.7 527.2 516.8L540 523L540 581L527.2 581C514.3 581 488.7 581 463 581C437.3 581 411.7 581 386 581C360.3 581 334.7 581 308.8 581C283 581 257 581 231.2 581C205.3 581 179.7 581 154 581C128.3 581 102.7 581 77 581C51.3 581 25.7 581 12.8 581L0 581Z" fill="#1a3327"></path><path d="M0 537L12.8 536.8C25.7 536.7 51.3 536.3 77 534.8C102.7 533.3 128.3 530.7 154 525.8C179.7 521 205.3 514 231.2 511.2C257 508.3 283 509.7 308.8 516.8C334.7 524 360.3 537 386 536.8C411.7 536.7 437.3 523.3 463 520.8C488.7 518.3 514.3 526.7 527.2 530.8L540 535L540 581L527.2 581C514.3 581 488.7 581 463 581C437.3 581 411.7 581 386 581C360.3 581 334.7 581 308.8 581C283 581 257 581 231.2 581C205.3 581 179.7 581 154 581C128.3 581 102.7 581 77 581C51.3 581 25.7 581 12.8 581L0 581Z" fill="#0a0a0a"></path></svg>