<svg id="visual" viewBox="0 0 540 580" width="540" height="580" xmlns="http://www.w3.org/2000/svg" xmlns:xlink="http://www.w3.org/1999/xlink" version="1.1"><rect x="0" y="0" width="540" height="580" fill="#3b82f6"></rect><path d="M0 358L12.8 370C25.7 382 51.3 406 77 415.3C102.7 424.7 128.3 419.3 154 408.8C179.7 398.3 205.3 382.7 231.2 374.7C257 366.7 283 366.3 308.8 375.8C334.7 385.3 360.3 404.7 386 400.5C411.7 396.3 437.3 368.7 463 364C488.7 359.3 514.3 377.7 527.2 386.8L540 396L540 581L527.2 581C514.3 581 488.7 581 463 581C437.3 581 411.7 581 386 581C360.3 581 334.7 581 308.8 581C283 581 257 581 231.2 581C205.3 581 179.7 581 154 581C128.3 581 102.7 581 77 581C51.3 581 25.7 581 12.8 581L0 581Z" fill="#ef4444"></path><path d="M0 407L12.8 415.8C25.7 424.7 51.3 442.3 77 441.3C102.7 440.3 128.3 420.7 154 407.8C179.7 395 205.3 389 231.2 387.5C257 386 283 389 308.8 401.3C334.7 413.7 360.3 435.3 386 437C411.7 438.7 437.3 420.3 463 417.3C488.7 414.3 514.3 426.7 527.2 432.8L540 439L540 581L527.2 581C514.3 581 488.7 581 463 581C437.3 581 411.7 581 386 581C360.3 581 334.7 581 308.8 581C283 581 257 581 231.2 581C205.3 581 179.7 581 154 581C128.3 581 102.7 581 77 581C51.3 581 25.7 581 12.8 581L0 581Z" fill="#fa786e"></path><path d="M0 476L12.8 468.2C25.7 460.3 51.3 444.7 77 437C102.7 429.3 128.3 429.7 154 433.2C179.7 436.7 205.3 443.3 231.2 442.7C257 442 283 434 308.8 434.8C334.7 435.7 360.3 445.3 386 454.7C411.7 464 437.3 473 463 469.7C488.7 466.3 514.3 450.7 527.2 442.8L540 435L540 581L527.2 581C514.3 581 488.7 581 463 581C437.3 581 411.7 581 386 581C360.3 581 334.7 581 308.8 581C283 581 257 581 231.2 581C205.3 581 179.7 581 154 581C128.3 581 102.7 581 77 581C51.3 581 25.7 581 12.8 581L0 581Z" fill="#ffa59b"></path><path d="M0 490L12.8 488.7C25.7 487.3 51.3 484.7 77 488C102.7 491.3 128.3 500.7 154 506C179.7 511.3 205.3 512.7 231.2 513.5C257 514.3 283 514.7 308.8 513.2C334.7 511.7 360.3 508.3 386 507.7C411.7 507 437.3 509 463 504.3C488.7 499.7 514.3 488.3 527.2 482.7L540 477L540 581L527.2 581C514.3 581 488.7 581 463 581C437.3 581 411.7 581 386 581C360.3 581 334.7 581 308.8 581C283 581 257 581 231.2 581C205.3 581 179.7 581 154 581C128.3 581 102.7 581 77 581C51.3 581 25.7 581 12.8 581L0 581Z" fill="#ffd0ca"></path><path d="M0 514L12.8 520C25.7 526 51.3 538 77 540.3C102.7 542.7 128.3 535.3 154 533.5C179.7 531.7 205.3 535.3 231.2 538.7C257 542 283 545 308.8 541.5C334.7 538 360.3 528 386 525C411.7 522 437.3 526 463 530.5C488.7 535 514.3 540 527.2 542.5L540 545L540 581L527.2 581C514.3 581 488.7 581 463 581C437.3 581 411.7 581 386 581C360.3 581 334.7 581 308.8 581C283 581 257 581 231.2 581C205.3 581 179.7 581 154 581C128.3 581 102.7 581 77 581C51.3 581 25.7 581 12.8 581L0 581Z" fill="#fafafa"></path></svg>