<svg id="visual" viewBox="0 0 540 580" width="540" height="580" xmlns="http://www.w3.org/2000/svg" xmlns:xlink="http://www.w3.org/1999/xlink" version="1.1"><rect x="0" y="0" width="540" height="580" fill="#3b82f6"></rect><path d="M0 352L12.8 352C25.7 352 51.3 352 77 361.2C102.7 370.3 128.3 388.7 154 395.8C179.7 403 205.3 399 231.2 392C257 385 283 375 308.8 370C334.7 365 360.3 365 386 375.7C411.7 386.3 437.3 407.7 463 411.8C488.7 416 514.3 403 527.2 396.5L540 390L540 581L527.2 581C514.3 581 488.7 581 463 581C437.3 581 411.7 581 386 581C360.3 581 334.7 581 308.8 581C283 581 257 581 231.2 581C205.3 581 179.7 581 154 581C128.3 581 102.7 581 77 581C51.3 581 25.7 581 12.8 581L0 581Z" fill="#eab308"></path><path d="M0 421L12.8 428C25.7 435 51.3 449 77 456C102.7 463 128.3 463 154 460.2C179.7 457.3 205.3 451.7 231.2 441.3C257 431 283 416 308.8 417.2C334.7 418.3 360.3 435.7 386 442.5C411.7 449.3 437.3 445.7 463 447.3C488.7 449 514.3 456 527.2 459.5L540 463L540 581L527.2 581C514.3 581 488.7 581 463 581C437.3 581 411.7 581 386 581C360.3 581 334.7 581 308.8 581C283 581 257 581 231.2 581C205.3 581 179.7 581 154 581C128.3 581 102.7 581 77 581C51.3 581 25.7 581 12.8 581L0 581Z" fill="#ad8517"></path><path d="M0 436L12.8 438.8C25.7 441.7 51.3 447.3 77 454C102.7 460.7 128.3 468.3 154 465.3C179.7 462.3 205.3 448.7 231.2 449C257 449.3 283 463.7 308.8 472.3C334.7 481 360.3 484 386 483.5C411.7 483 437.3 479 463 478.7C488.7 478.3 514.3 481.7 527.2 483.3L540 485L540 581L527.2 581C514.3 581 488.7 581 463 581C437.3 581 411.7 581 386 581C360.3 581 334.7 581 308.8 581C283 581 257 581 231.2 581C205.3 581 179.7 581 154 581C128.3 581 102.7 581 77 581C51.3 581 25.7 581 12.8 581L0 581Z" fill="#735919"></path><path d="M0 516L12.8 516.8C25.7 517.7 51.3 519.3 77 515.5C102.7 511.7 128.3 502.3 154 497C179.7 491.7 205.3 490.3 231.2 486.5C257 482.7 283 476.3 308.8 479.8C334.7 483.3 360.3 496.7 386 503.7C411.7 510.7 437.3 511.3 463 511.2C488.7 511 514.3 510 527.2 509.5L540 509L540 581L527.2 581C514.3 581 488.7 581 463 581C437.3 581 411.7 581 386 581C360.3 581 334.7 581 308.8 581C283 581 257 581 231.2 581C205.3 581 179.7 581 154 581C128.3 581 102.7 581 77 581C51.3 581 25.7 581 12.8 581L0 581Z" fill="#3e3115"></path><path d="M0 523L12.8 521.5C25.7 520 51.3 517 77 515.8C102.7 514.7 128.3 515.3 154 520.7C179.7 526 205.3 536 231.2 538.2C257 540.3 283 534.7 308.8 531.5C334.7 528.3 360.3 527.7 386 528.5C411.7 529.3 437.3 531.7 463 533.2C488.7 534.7 514.3 535.3 527.2 535.7L540 536L540 581L527.2 581C514.3 581 488.7 581 463 581C437.3 581 411.7 581 386 581C360.3 581 334.7 581 308.8 581C283 581 257 581 231.2 581C205.3 581 179.7 581 154 581C128.3 581 102.7 581 77 581C51.3 581 25.7 581 12.8 581L0 581Z" fill="#0a0a0a"></path></svg>