<svg id="visual" viewBox="0 0 960 270" width="960" height="270" xmlns="http://www.w3.org/2000/svg" xmlns:xlink="http://www.w3.org/1999/xlink" version="1.1"><rect x="0" y="0" width="960" height="270" fill="#3b82f6"></rect><path d="M0 173L22.8 171.5C45.7 170 91.3 167 137 166.2C182.7 165.3 228.3 166.7 274 168.7C319.7 170.7 365.3 173.3 411.2 176.3C457 179.3 503 182.7 548.8 181.8C594.7 181 640.3 176 686 171.7C731.7 167.3 777.3 163.7 823 162.5C868.7 161.3 914.3 162.7 937.2 163.3L960 164L960 271L937.2 271C914.3 271 868.7 271 823 271C777.3 271 731.7 271 686 271C640.3 271 594.7 271 548.8 271C503 271 457 271 411.2 271C365.3 271 319.7 271 274 271C228.3 271 182.7 271 137 271C91.3 271 45.7 271 22.8 271L0 271Z" fill="#6366f1"></path><path d="M0 212L22.8 207.8C45.7 203.7 91.3 195.3 137 194.2C182.7 193 228.3 199 274 202.5C319.7 206 365.3 207 411.2 205C457 203 503 198 548.8 197.2C594.7 196.3 640.3 199.7 686 201.3C731.7 203 777.3 203 823 204C868.7 205 914.3 207 937.2 208L960 209L960 271L937.2 271C914.3 271 868.7 271 823 271C777.3 271 731.7 271 686 271C640.3 271 594.7 271 548.8 271C503 271 457 271 411.2 271C365.3 271 319.7 271 274 271C228.3 271 182.7 271 137 271C91.3 271 45.7 271 22.8 271L0 271Z" fill="#4f4eb1"></path><path d="M0 224L22.8 221.3C45.7 218.7 91.3 213.3 137 214.2C182.7 215 228.3 222 274 225.5C319.7 229 365.3 229 411.2 227.5C457 226 503 223 548.8 219C594.7 215 640.3 210 686 211.2C731.7 212.3 777.3 219.7 823 223.2C868.7 226.7 914.3 226.3 937.2 226.2L960 226L960 271L937.2 271C914.3 271 868.7 271 823 271C777.3 271 731.7 271 686 271C640.3 271 594.7 271 548.8 271C503 271 457 271 411.2 271C365.3 271 319.7 271 274 271C228.3 271 182.7 271 137 271C91.3 271 45.7 271 22.8 271L0 271Z" fill="#3a3775"></path><path d="M0 229L22.8 228.3C45.7 227.7 91.3 226.3 137 228.7C182.7 231 228.3 237 274 239.5C319.7 242 365.3 241 411.2 238C457 235 503 230 548.8 227.7C594.7 225.3 640.3 225.7 686 227.2C731.7 228.7 777.3 231.3 823 231C868.7 230.7 914.3 227.3 937.2 225.7L960 224L960 271L937.2 271C914.3 271 868.7 271 823 271C777.3 271 731.7 271 686 271C640.3 271 594.7 271 548.8 271C503 271 457 271 411.2 271C365.3 271 319.7 271 274 271C228.3 271 182.7 271 137 271C91.3 271 45.7 271 22.8 271L0 271Z" fill="#24213e"></path><path d="M0 243L22.8 244C45.7 245 91.3 247 137 248.3C182.7 249.7 228.3 250.3 274 249.3C319.7 248.3 365.3 245.7 411.2 245.2C457 244.7 503 246.3 548.8 248.5C594.7 250.7 640.3 253.3 686 254.8C731.7 256.3 777.3 256.7 823 256.5C868.7 256.3 914.3 255.7 937.2 255.3L960 255L960 271L937.2 271C914.3 271 868.7 271 823 271C777.3 271 731.7 271 686 271C640.3 271 594.7 271 548.8 271C503 271 457 271 411.2 271C365.3 271 319.7 271 274 271C228.3 271 182.7 271 137 271C91.3 271 45.7 271 22.8 271L0 271Z" fill="#0a0a0a"></path></svg>