<svg id="visual" viewBox="0 0 900 270" width="900" height="270" xmlns="http://www.w3.org/2000/svg" xmlns:xlink="http://www.w3.org/1999/xlink" version="1.1"><rect x="0" y="0" width="900" height="270" fill="#3b82f6"></rect><path d="M0 179L21.5 182.3C43 185.7 86 192.3 128.8 188.7C171.7 185 214.3 171 257.2 164.3C300 157.7 343 158.3 385.8 159.3C428.7 160.3 471.3 161.7 514.2 164.8C557 168 600 173 642.8 175.3C685.7 177.7 728.3 177.3 771.2 175C814 172.7 857 168.3 878.5 166.2L900 164L900 271L878.5 271C857 271 814 271 771.2 271C728.3 271 685.7 271 642.8 271C600 271 557 271 514.2 271C471.3 271 428.7 271 385.8 271C343 271 300 271 257.2 271C214.3 271 171.7 271 128.8 271C86 271 43 271 21.5 271L0 271Z" fill="#a5b4fc"></path><path d="M0 180L21.5 185.5C43 191 86 202 128.8 206.2C171.7 210.3 214.3 207.7 257.2 207.3C300 207 343 209 385.8 208.8C428.7 208.7 471.3 206.3 514.2 203.8C557 201.3 600 198.7 642.8 195C685.7 191.3 728.3 186.7 771.2 185.5C814 184.3 857 186.7 878.5 187.8L900 189L900 271L878.5 271C857 271 814 271 771.2 271C728.3 271 685.7 271 642.8 271C600 271 557 271 514.2 271C471.3 271 428.7 271 385.8 271C343 271 300 271 257.2 271C214.3 271 171.7 271 128.8 271C86 271 43 271 21.5 271L0 271Z" fill="#bcc5fc"></path><path d="M0 211L21.5 209.8C43 208.7 86 206.3 128.8 208C171.7 209.7 214.3 215.3 257.2 218.5C300 221.7 343 222.3 385.8 219.2C428.7 216 471.3 209 514.2 206.2C557 203.3 600 204.7 642.8 209C685.7 213.3 728.3 220.7 771.2 223.2C814 225.7 857 223.3 878.5 222.2L900 221L900 271L878.5 271C857 271 814 271 771.2 271C728.3 271 685.7 271 642.8 271C600 271 557 271 514.2 271C471.3 271 428.7 271 385.8 271C343 271 300 271 257.2 271C214.3 271 171.7 271 128.8 271C86 271 43 271 21.5 271L0 271Z" fill="#d1d6fb"></path><path d="M0 235L21.5 233.3C43 231.7 86 228.3 128.8 228.2C171.7 228 214.3 231 257.2 233.5C300 236 343 238 385.8 236.3C428.7 234.7 471.3 229.3 514.2 225.3C557 221.3 600 218.7 642.8 219.2C685.7 219.7 728.3 223.3 771.2 225.5C814 227.7 857 228.3 878.5 228.7L900 229L900 271L878.5 271C857 271 814 271 771.2 271C728.3 271 685.7 271 642.8 271C600 271 557 271 514.2 271C471.3 271 428.7 271 385.8 271C343 271 300 271 257.2 271C214.3 271 171.7 271 128.8 271C86 271 43 271 21.5 271L0 271Z" fill="#e6e8fb"></path><path d="M0 239L21.5 238.7C43 238.3 86 237.7 128.8 240.2C171.7 242.7 214.3 248.3 257.2 248.5C300 248.7 343 243.3 385.8 242.5C428.7 241.7 471.3 245.3 514.2 247.2C557 249 600 249 642.8 248.8C685.7 248.7 728.3 248.3 771.2 249.2C814 250 857 252 878.5 253L900 254L900 271L878.5 271C857 271 814 271 771.2 271C728.3 271 685.7 271 642.8 271C600 271 557 271 514.2 271C471.3 271 428.7 271 385.8 271C343 271 300 271 257.2 271C214.3 271 171.7 271 128.8 271C86 271 43 271 21.5 271L0 271Z" fill="#fafafa"></path></svg>